%TF.GenerationSoftware,KiCad,Pcbnew,(6.0.2)*%
%TF.CreationDate,2023-11-20T10:03:31+09:00*%
%TF.ProjectId,matrix_display,6d617472-6978-45f6-9469-73706c61792e,rev?*%
%TF.SameCoordinates,Original*%
%TF.FileFunction,Legend,Top*%
%TF.FilePolarity,Positive*%
%FSLAX46Y46*%
G04 Gerber Fmt 4.6, Leading zero omitted, Abs format (unit mm)*
G04 Created by KiCad (PCBNEW (6.0.2)) date 2023-11-20 10:03:31*
%MOMM*%
%LPD*%
G01*
G04 APERTURE LIST*
%ADD10C,0.150000*%
%ADD11C,0.120000*%
G04 APERTURE END LIST*
D10*
%TO.C,R4*%
X99833333Y-54952380D02*
X99500000Y-54476190D01*
X99261904Y-54952380D02*
X99261904Y-53952380D01*
X99642857Y-53952380D01*
X99738095Y-54000000D01*
X99785714Y-54047619D01*
X99833333Y-54142857D01*
X99833333Y-54285714D01*
X99785714Y-54380952D01*
X99738095Y-54428571D01*
X99642857Y-54476190D01*
X99261904Y-54476190D01*
X100690476Y-54285714D02*
X100690476Y-54952380D01*
X100452380Y-53904761D02*
X100214285Y-54619047D01*
X100833333Y-54619047D01*
%TO.C,R3*%
X89833333Y-54952380D02*
X89500000Y-54476190D01*
X89261904Y-54952380D02*
X89261904Y-53952380D01*
X89642857Y-53952380D01*
X89738095Y-54000000D01*
X89785714Y-54047619D01*
X89833333Y-54142857D01*
X89833333Y-54285714D01*
X89785714Y-54380952D01*
X89738095Y-54428571D01*
X89642857Y-54476190D01*
X89261904Y-54476190D01*
X90166666Y-53952380D02*
X90785714Y-53952380D01*
X90452380Y-54333333D01*
X90595238Y-54333333D01*
X90690476Y-54380952D01*
X90738095Y-54428571D01*
X90785714Y-54523809D01*
X90785714Y-54761904D01*
X90738095Y-54857142D01*
X90690476Y-54904761D01*
X90595238Y-54952380D01*
X90309523Y-54952380D01*
X90214285Y-54904761D01*
X90166666Y-54857142D01*
%TO.C,R2*%
X79833333Y-54952380D02*
X79500000Y-54476190D01*
X79261904Y-54952380D02*
X79261904Y-53952380D01*
X79642857Y-53952380D01*
X79738095Y-54000000D01*
X79785714Y-54047619D01*
X79833333Y-54142857D01*
X79833333Y-54285714D01*
X79785714Y-54380952D01*
X79738095Y-54428571D01*
X79642857Y-54476190D01*
X79261904Y-54476190D01*
X80214285Y-54047619D02*
X80261904Y-54000000D01*
X80357142Y-53952380D01*
X80595238Y-53952380D01*
X80690476Y-54000000D01*
X80738095Y-54047619D01*
X80785714Y-54142857D01*
X80785714Y-54238095D01*
X80738095Y-54380952D01*
X80166666Y-54952380D01*
X80785714Y-54952380D01*
%TO.C,R1*%
X69833333Y-54952380D02*
X69500000Y-54476190D01*
X69261904Y-54952380D02*
X69261904Y-53952380D01*
X69642857Y-53952380D01*
X69738095Y-54000000D01*
X69785714Y-54047619D01*
X69833333Y-54142857D01*
X69833333Y-54285714D01*
X69785714Y-54380952D01*
X69738095Y-54428571D01*
X69642857Y-54476190D01*
X69261904Y-54476190D01*
X70785714Y-54952380D02*
X70214285Y-54952380D01*
X70500000Y-54952380D02*
X70500000Y-53952380D01*
X70404761Y-54095238D01*
X70309523Y-54190476D01*
X70214285Y-54238095D01*
D11*
%TO.C,R4*%
X96500000Y-51500000D02*
X96500000Y-57500000D01*
X103500000Y-57500000D02*
X103500000Y-51500000D01*
%TO.C,R3*%
X86500000Y-51500000D02*
X86500000Y-57500000D01*
X93500000Y-57500000D02*
X93500000Y-51500000D01*
%TO.C,R2*%
X76500000Y-51500000D02*
X76500000Y-57500000D01*
X83500000Y-57500000D02*
X83500000Y-51500000D01*
%TO.C,R1*%
X66500000Y-51500000D02*
X66500000Y-57500000D01*
X73500000Y-57500000D02*
X73500000Y-51500000D01*
%TO.C,J2*%
X51170000Y-56955000D02*
X53830000Y-56955000D01*
X51170000Y-56895000D02*
X53830000Y-56895000D01*
X53830000Y-56895000D02*
X53830000Y-56955000D01*
X51170000Y-56895000D02*
X51170000Y-56955000D01*
X51170000Y-55625000D02*
X51170000Y-54295000D01*
X51170000Y-54295000D02*
X52500000Y-54295000D01*
%TO.C,J1*%
X55670000Y-51755000D02*
X57000000Y-51755000D01*
X55670000Y-56955000D02*
X60870000Y-56955000D01*
X58270000Y-54355000D02*
X58270000Y-51755000D01*
X55670000Y-54355000D02*
X58270000Y-54355000D01*
X55670000Y-54355000D02*
X55670000Y-56955000D01*
X55670000Y-53085000D02*
X55670000Y-51755000D01*
X60870000Y-51755000D02*
X60870000Y-56955000D01*
X58270000Y-51755000D02*
X60870000Y-51755000D01*
%TD*%
M02*
