M48
; DRILL file {KiCad (6.0.2)} date Mon Nov 20 10:03:27 2023
; FORMAT={-:-/ absolute / inch / decimal}
; #@! TF.CreationDate,2023-11-20T10:03:27+09:00
; #@! TF.GenerationSoftware,Kicad,Pcbnew,(6.0.2)
; #@! TF.FileFunction,Plated,1,2,PTH
FMAT,2
INCH
; #@! TA.AperFunction,Plated,PTH,ViaDrill
T1C0.0157
; #@! TA.AperFunction,Plated,PTH,ComponentDrill
T2C0.0394
%
G90
G05
T1
X2.6772Y-2.0669
X2.6772Y-2.2244
X2.7559Y-2.0669
X2.7559Y-2.2244
X2.8346Y-2.0669
X2.8346Y-2.2244
X3.0709Y-2.0669
X3.0709Y-2.2244
X3.1496Y-2.0669
X3.1496Y-2.2244
X3.2283Y-2.0669
X3.2283Y-2.2244
X3.4646Y-2.0669
X3.4646Y-2.2244
X3.5433Y-2.0669
X3.5433Y-2.2244
X3.622Y-2.0669
X3.622Y-2.2244
X3.8583Y-2.0669
X3.8583Y-2.2244
X3.937Y-2.0669
X3.937Y-2.2244
X4.0157Y-2.0669
X4.0157Y-2.2244
T2
X2.0669Y-2.19
X2.2441Y-2.09
X2.2441Y-2.19
X2.3441Y-2.09
X2.3441Y-2.19
T0
M30
