%TF.GenerationSoftware,KiCad,Pcbnew,(6.0.2)*%
%TF.CreationDate,2023-11-20T10:03:31+09:00*%
%TF.ProjectId,matrix_display,6d617472-6978-45f6-9469-73706c61792e,rev?*%
%TF.SameCoordinates,Original*%
%TF.FileFunction,Copper,L2,Bot*%
%TF.FilePolarity,Positive*%
%FSLAX46Y46*%
G04 Gerber Fmt 4.6, Leading zero omitted, Abs format (unit mm)*
G04 Created by KiCad (PCBNEW (6.0.2)) date 2023-11-20 10:03:31*
%MOMM*%
%LPD*%
G01*
G04 APERTURE LIST*
%TA.AperFunction,ComponentPad*%
%ADD10R,1.700000X1.700000*%
%TD*%
%TA.AperFunction,ComponentPad*%
%ADD11O,1.700000X1.700000*%
%TD*%
%TA.AperFunction,ViaPad*%
%ADD12C,0.800000*%
%TD*%
%TA.AperFunction,Conductor*%
%ADD13C,0.400000*%
%TD*%
G04 APERTURE END LIST*
D10*
%TO.P,J2,1,Pin_1*%
%TO.N,Net-(J2-Pad1)*%
X52500000Y-55625000D03*
%TD*%
%TO.P,J1,1,Pin_1*%
%TO.N,Net-(J1-Pad1)*%
X57000000Y-53085000D03*
D11*
%TO.P,J1,2,Pin_2*%
%TO.N,Net-(J1-Pad2)*%
X59540000Y-53085000D03*
%TO.P,J1,3,Pin_3*%
%TO.N,Net-(J1-Pad3)*%
X57000000Y-55625000D03*
%TO.P,J1,4,Pin_4*%
%TO.N,Net-(J1-Pad4)*%
X59540000Y-55625000D03*
%TD*%
D12*
%TO.N,Net-(J2-Pad1)*%
X98000000Y-56500000D03*
X102000000Y-56500000D03*
X100000000Y-56500000D03*
%TO.N,Net-(J1-Pad4)*%
X98000000Y-52500000D03*
X102000000Y-52500000D03*
X100000000Y-52500000D03*
%TO.N,Net-(J2-Pad1)*%
X88000000Y-56500000D03*
X92000000Y-56500000D03*
X90000000Y-56500000D03*
%TO.N,Net-(J1-Pad3)*%
X88000000Y-52500000D03*
X92000000Y-52500000D03*
X90000000Y-52500000D03*
%TO.N,Net-(J2-Pad1)*%
X82000000Y-56500000D03*
X80000000Y-56500000D03*
X78000000Y-56500000D03*
%TO.N,Net-(J1-Pad2)*%
X78000000Y-52500000D03*
X82000000Y-52500000D03*
X80000000Y-52500000D03*
%TO.N,Net-(J2-Pad1)*%
X68000000Y-56500000D03*
X72000000Y-56500000D03*
X70000000Y-56500000D03*
%TO.N,Net-(J1-Pad1)*%
X68000000Y-52500000D03*
X72000000Y-52500000D03*
X70000000Y-52500000D03*
%TD*%
D13*
%TO.N,Net-(J1-Pad3)*%
X88000000Y-50500000D02*
X90000000Y-52500000D01*
X86500000Y-50500000D02*
X88000000Y-50500000D01*
%TO.N,Net-(J1-Pad2)*%
X63080000Y-54500000D02*
X78000000Y-54500000D01*
X78000000Y-54500000D02*
X80000000Y-52500000D01*
X61665000Y-53085000D02*
X63080000Y-54500000D01*
X59540000Y-53085000D02*
X61665000Y-53085000D01*
%TO.N,Net-(J1-Pad3)*%
X86500000Y-50500000D02*
X62750000Y-50500000D01*
X87250000Y-50500000D02*
X86500000Y-50500000D01*
X56125000Y-55625000D02*
X57000000Y-55625000D01*
X54750000Y-54250000D02*
X56125000Y-55625000D01*
X54750000Y-52250000D02*
X54750000Y-54250000D01*
X56500000Y-50500000D02*
X54750000Y-52250000D01*
X62750000Y-50500000D02*
X56500000Y-50500000D01*
%TD*%
M02*
