%TF.GenerationSoftware,KiCad,Pcbnew,(6.0.2)*%
%TF.CreationDate,2023-03-09T16:35:16+09:00*%
%TF.ProjectId,pixel_array_study,70697865-6c5f-4617-9272-61795f737475,rev?*%
%TF.SameCoordinates,Original*%
%TF.FileFunction,Soldermask,Bot*%
%TF.FilePolarity,Negative*%
%FSLAX46Y46*%
G04 Gerber Fmt 4.6, Leading zero omitted, Abs format (unit mm)*
G04 Created by KiCad (PCBNEW (6.0.2)) date 2023-03-09 16:35:16*
%MOMM*%
%LPD*%
G01*
G04 APERTURE LIST*
%ADD10R,1.700000X1.700000*%
%ADD11O,1.700000X1.700000*%
G04 APERTURE END LIST*
D10*
%TO.C,J8*%
X144000000Y-60200000D03*
%TD*%
%TO.C,J10*%
X203800000Y-67600000D03*
%TD*%
%TO.C,J9*%
X208460000Y-24425000D03*
D11*
X211000000Y-24425000D03*
X208460000Y-26965000D03*
X211000000Y-26965000D03*
X208460000Y-29505000D03*
X211000000Y-29505000D03*
X208460000Y-32045000D03*
X211000000Y-32045000D03*
X208460000Y-34585000D03*
X211000000Y-34585000D03*
X208460000Y-37125000D03*
X211000000Y-37125000D03*
X208460000Y-39665000D03*
X211000000Y-39665000D03*
X208460000Y-42205000D03*
X211000000Y-42205000D03*
X208460000Y-44745000D03*
X211000000Y-44745000D03*
X208460000Y-47285000D03*
X211000000Y-47285000D03*
X208460000Y-49825000D03*
X211000000Y-49825000D03*
X208460000Y-52365000D03*
X211000000Y-52365000D03*
X208460000Y-54905000D03*
X211000000Y-54905000D03*
X208460000Y-57445000D03*
X211000000Y-57445000D03*
X208460000Y-59985000D03*
X211000000Y-59985000D03*
X208460000Y-62525000D03*
X211000000Y-62525000D03*
X208460000Y-65065000D03*
X211000000Y-65065000D03*
X208460000Y-67605000D03*
X211000000Y-67605000D03*
%TD*%
%TO.C,J7*%
X144000000Y-56480000D03*
X141460000Y-56480000D03*
X144000000Y-53940000D03*
X141460000Y-53940000D03*
X144000000Y-51400000D03*
X141460000Y-51400000D03*
X144000000Y-48860000D03*
X141460000Y-48860000D03*
X144000000Y-46320000D03*
X141460000Y-46320000D03*
X144000000Y-43780000D03*
X141460000Y-43780000D03*
X144000000Y-41240000D03*
X141460000Y-41240000D03*
X144000000Y-38700000D03*
X141460000Y-38700000D03*
X144000000Y-36160000D03*
X141460000Y-36160000D03*
X144000000Y-33620000D03*
X141460000Y-33620000D03*
X144000000Y-31080000D03*
X141460000Y-31080000D03*
X144000000Y-28540000D03*
X141460000Y-28540000D03*
X144000000Y-26000000D03*
D10*
X141460000Y-26000000D03*
%TD*%
%TO.C,J6*%
X91000000Y-50700000D03*
%TD*%
%TO.C,J5*%
X88500000Y-29000000D03*
D11*
X91040000Y-29000000D03*
X88500000Y-31540000D03*
X91040000Y-31540000D03*
X88500000Y-34080000D03*
X91040000Y-34080000D03*
X88500000Y-36620000D03*
X91040000Y-36620000D03*
X88500000Y-39160000D03*
X91040000Y-39160000D03*
X88500000Y-41700000D03*
X91040000Y-41700000D03*
X88500000Y-44240000D03*
X91040000Y-44240000D03*
X88500000Y-46780000D03*
X91040000Y-46780000D03*
%TD*%
M02*
