%TF.GenerationSoftware,KiCad,Pcbnew,(6.0.2)*%
%TF.CreationDate,2023-03-09T16:35:16+09:00*%
%TF.ProjectId,pixel_array_study,70697865-6c5f-4617-9272-61795f737475,rev?*%
%TF.SameCoordinates,Original*%
%TF.FileFunction,Legend,Top*%
%TF.FilePolarity,Positive*%
%FSLAX46Y46*%
G04 Gerber Fmt 4.6, Leading zero omitted, Abs format (unit mm)*
G04 Created by KiCad (PCBNEW (6.0.2)) date 2023-03-09 16:35:16*
%MOMM*%
%LPD*%
G01*
G04 APERTURE LIST*
%ADD10C,0.150000*%
%ADD11C,0.120000*%
G04 APERTURE END LIST*
D10*
%TO.C,R90*%
X194357142Y-66452380D02*
X194023809Y-65976190D01*
X193785714Y-66452380D02*
X193785714Y-65452380D01*
X194166666Y-65452380D01*
X194261904Y-65500000D01*
X194309523Y-65547619D01*
X194357142Y-65642857D01*
X194357142Y-65785714D01*
X194309523Y-65880952D01*
X194261904Y-65928571D01*
X194166666Y-65976190D01*
X193785714Y-65976190D01*
X194833333Y-66452380D02*
X195023809Y-66452380D01*
X195119047Y-66404761D01*
X195166666Y-66357142D01*
X195261904Y-66214285D01*
X195309523Y-66023809D01*
X195309523Y-65642857D01*
X195261904Y-65547619D01*
X195214285Y-65500000D01*
X195119047Y-65452380D01*
X194928571Y-65452380D01*
X194833333Y-65500000D01*
X194785714Y-65547619D01*
X194738095Y-65642857D01*
X194738095Y-65880952D01*
X194785714Y-65976190D01*
X194833333Y-66023809D01*
X194928571Y-66071428D01*
X195119047Y-66071428D01*
X195214285Y-66023809D01*
X195261904Y-65976190D01*
X195309523Y-65880952D01*
X195928571Y-65452380D02*
X196023809Y-65452380D01*
X196119047Y-65500000D01*
X196166666Y-65547619D01*
X196214285Y-65642857D01*
X196261904Y-65833333D01*
X196261904Y-66071428D01*
X196214285Y-66261904D01*
X196166666Y-66357142D01*
X196119047Y-66404761D01*
X196023809Y-66452380D01*
X195928571Y-66452380D01*
X195833333Y-66404761D01*
X195785714Y-66357142D01*
X195738095Y-66261904D01*
X195690476Y-66071428D01*
X195690476Y-65833333D01*
X195738095Y-65642857D01*
X195785714Y-65547619D01*
X195833333Y-65500000D01*
X195928571Y-65452380D01*
%TO.C,R89*%
X186357142Y-66452380D02*
X186023809Y-65976190D01*
X185785714Y-66452380D02*
X185785714Y-65452380D01*
X186166666Y-65452380D01*
X186261904Y-65500000D01*
X186309523Y-65547619D01*
X186357142Y-65642857D01*
X186357142Y-65785714D01*
X186309523Y-65880952D01*
X186261904Y-65928571D01*
X186166666Y-65976190D01*
X185785714Y-65976190D01*
X186928571Y-65880952D02*
X186833333Y-65833333D01*
X186785714Y-65785714D01*
X186738095Y-65690476D01*
X186738095Y-65642857D01*
X186785714Y-65547619D01*
X186833333Y-65500000D01*
X186928571Y-65452380D01*
X187119047Y-65452380D01*
X187214285Y-65500000D01*
X187261904Y-65547619D01*
X187309523Y-65642857D01*
X187309523Y-65690476D01*
X187261904Y-65785714D01*
X187214285Y-65833333D01*
X187119047Y-65880952D01*
X186928571Y-65880952D01*
X186833333Y-65928571D01*
X186785714Y-65976190D01*
X186738095Y-66071428D01*
X186738095Y-66261904D01*
X186785714Y-66357142D01*
X186833333Y-66404761D01*
X186928571Y-66452380D01*
X187119047Y-66452380D01*
X187214285Y-66404761D01*
X187261904Y-66357142D01*
X187309523Y-66261904D01*
X187309523Y-66071428D01*
X187261904Y-65976190D01*
X187214285Y-65928571D01*
X187119047Y-65880952D01*
X187785714Y-66452380D02*
X187976190Y-66452380D01*
X188071428Y-66404761D01*
X188119047Y-66357142D01*
X188214285Y-66214285D01*
X188261904Y-66023809D01*
X188261904Y-65642857D01*
X188214285Y-65547619D01*
X188166666Y-65500000D01*
X188071428Y-65452380D01*
X187880952Y-65452380D01*
X187785714Y-65500000D01*
X187738095Y-65547619D01*
X187690476Y-65642857D01*
X187690476Y-65880952D01*
X187738095Y-65976190D01*
X187785714Y-66023809D01*
X187880952Y-66071428D01*
X188071428Y-66071428D01*
X188166666Y-66023809D01*
X188214285Y-65976190D01*
X188261904Y-65880952D01*
%TO.C,R88*%
X178357142Y-66452380D02*
X178023809Y-65976190D01*
X177785714Y-66452380D02*
X177785714Y-65452380D01*
X178166666Y-65452380D01*
X178261904Y-65500000D01*
X178309523Y-65547619D01*
X178357142Y-65642857D01*
X178357142Y-65785714D01*
X178309523Y-65880952D01*
X178261904Y-65928571D01*
X178166666Y-65976190D01*
X177785714Y-65976190D01*
X178928571Y-65880952D02*
X178833333Y-65833333D01*
X178785714Y-65785714D01*
X178738095Y-65690476D01*
X178738095Y-65642857D01*
X178785714Y-65547619D01*
X178833333Y-65500000D01*
X178928571Y-65452380D01*
X179119047Y-65452380D01*
X179214285Y-65500000D01*
X179261904Y-65547619D01*
X179309523Y-65642857D01*
X179309523Y-65690476D01*
X179261904Y-65785714D01*
X179214285Y-65833333D01*
X179119047Y-65880952D01*
X178928571Y-65880952D01*
X178833333Y-65928571D01*
X178785714Y-65976190D01*
X178738095Y-66071428D01*
X178738095Y-66261904D01*
X178785714Y-66357142D01*
X178833333Y-66404761D01*
X178928571Y-66452380D01*
X179119047Y-66452380D01*
X179214285Y-66404761D01*
X179261904Y-66357142D01*
X179309523Y-66261904D01*
X179309523Y-66071428D01*
X179261904Y-65976190D01*
X179214285Y-65928571D01*
X179119047Y-65880952D01*
X179880952Y-65880952D02*
X179785714Y-65833333D01*
X179738095Y-65785714D01*
X179690476Y-65690476D01*
X179690476Y-65642857D01*
X179738095Y-65547619D01*
X179785714Y-65500000D01*
X179880952Y-65452380D01*
X180071428Y-65452380D01*
X180166666Y-65500000D01*
X180214285Y-65547619D01*
X180261904Y-65642857D01*
X180261904Y-65690476D01*
X180214285Y-65785714D01*
X180166666Y-65833333D01*
X180071428Y-65880952D01*
X179880952Y-65880952D01*
X179785714Y-65928571D01*
X179738095Y-65976190D01*
X179690476Y-66071428D01*
X179690476Y-66261904D01*
X179738095Y-66357142D01*
X179785714Y-66404761D01*
X179880952Y-66452380D01*
X180071428Y-66452380D01*
X180166666Y-66404761D01*
X180214285Y-66357142D01*
X180261904Y-66261904D01*
X180261904Y-66071428D01*
X180214285Y-65976190D01*
X180166666Y-65928571D01*
X180071428Y-65880952D01*
%TO.C,R87*%
X170357142Y-66452380D02*
X170023809Y-65976190D01*
X169785714Y-66452380D02*
X169785714Y-65452380D01*
X170166666Y-65452380D01*
X170261904Y-65500000D01*
X170309523Y-65547619D01*
X170357142Y-65642857D01*
X170357142Y-65785714D01*
X170309523Y-65880952D01*
X170261904Y-65928571D01*
X170166666Y-65976190D01*
X169785714Y-65976190D01*
X170928571Y-65880952D02*
X170833333Y-65833333D01*
X170785714Y-65785714D01*
X170738095Y-65690476D01*
X170738095Y-65642857D01*
X170785714Y-65547619D01*
X170833333Y-65500000D01*
X170928571Y-65452380D01*
X171119047Y-65452380D01*
X171214285Y-65500000D01*
X171261904Y-65547619D01*
X171309523Y-65642857D01*
X171309523Y-65690476D01*
X171261904Y-65785714D01*
X171214285Y-65833333D01*
X171119047Y-65880952D01*
X170928571Y-65880952D01*
X170833333Y-65928571D01*
X170785714Y-65976190D01*
X170738095Y-66071428D01*
X170738095Y-66261904D01*
X170785714Y-66357142D01*
X170833333Y-66404761D01*
X170928571Y-66452380D01*
X171119047Y-66452380D01*
X171214285Y-66404761D01*
X171261904Y-66357142D01*
X171309523Y-66261904D01*
X171309523Y-66071428D01*
X171261904Y-65976190D01*
X171214285Y-65928571D01*
X171119047Y-65880952D01*
X171642857Y-65452380D02*
X172309523Y-65452380D01*
X171880952Y-66452380D01*
%TO.C,R86*%
X162357142Y-66452380D02*
X162023809Y-65976190D01*
X161785714Y-66452380D02*
X161785714Y-65452380D01*
X162166666Y-65452380D01*
X162261904Y-65500000D01*
X162309523Y-65547619D01*
X162357142Y-65642857D01*
X162357142Y-65785714D01*
X162309523Y-65880952D01*
X162261904Y-65928571D01*
X162166666Y-65976190D01*
X161785714Y-65976190D01*
X162928571Y-65880952D02*
X162833333Y-65833333D01*
X162785714Y-65785714D01*
X162738095Y-65690476D01*
X162738095Y-65642857D01*
X162785714Y-65547619D01*
X162833333Y-65500000D01*
X162928571Y-65452380D01*
X163119047Y-65452380D01*
X163214285Y-65500000D01*
X163261904Y-65547619D01*
X163309523Y-65642857D01*
X163309523Y-65690476D01*
X163261904Y-65785714D01*
X163214285Y-65833333D01*
X163119047Y-65880952D01*
X162928571Y-65880952D01*
X162833333Y-65928571D01*
X162785714Y-65976190D01*
X162738095Y-66071428D01*
X162738095Y-66261904D01*
X162785714Y-66357142D01*
X162833333Y-66404761D01*
X162928571Y-66452380D01*
X163119047Y-66452380D01*
X163214285Y-66404761D01*
X163261904Y-66357142D01*
X163309523Y-66261904D01*
X163309523Y-66071428D01*
X163261904Y-65976190D01*
X163214285Y-65928571D01*
X163119047Y-65880952D01*
X164166666Y-65452380D02*
X163976190Y-65452380D01*
X163880952Y-65500000D01*
X163833333Y-65547619D01*
X163738095Y-65690476D01*
X163690476Y-65880952D01*
X163690476Y-66261904D01*
X163738095Y-66357142D01*
X163785714Y-66404761D01*
X163880952Y-66452380D01*
X164071428Y-66452380D01*
X164166666Y-66404761D01*
X164214285Y-66357142D01*
X164261904Y-66261904D01*
X164261904Y-66023809D01*
X164214285Y-65928571D01*
X164166666Y-65880952D01*
X164071428Y-65833333D01*
X163880952Y-65833333D01*
X163785714Y-65880952D01*
X163738095Y-65928571D01*
X163690476Y-66023809D01*
%TO.C,R85*%
X154357142Y-66452380D02*
X154023809Y-65976190D01*
X153785714Y-66452380D02*
X153785714Y-65452380D01*
X154166666Y-65452380D01*
X154261904Y-65500000D01*
X154309523Y-65547619D01*
X154357142Y-65642857D01*
X154357142Y-65785714D01*
X154309523Y-65880952D01*
X154261904Y-65928571D01*
X154166666Y-65976190D01*
X153785714Y-65976190D01*
X154928571Y-65880952D02*
X154833333Y-65833333D01*
X154785714Y-65785714D01*
X154738095Y-65690476D01*
X154738095Y-65642857D01*
X154785714Y-65547619D01*
X154833333Y-65500000D01*
X154928571Y-65452380D01*
X155119047Y-65452380D01*
X155214285Y-65500000D01*
X155261904Y-65547619D01*
X155309523Y-65642857D01*
X155309523Y-65690476D01*
X155261904Y-65785714D01*
X155214285Y-65833333D01*
X155119047Y-65880952D01*
X154928571Y-65880952D01*
X154833333Y-65928571D01*
X154785714Y-65976190D01*
X154738095Y-66071428D01*
X154738095Y-66261904D01*
X154785714Y-66357142D01*
X154833333Y-66404761D01*
X154928571Y-66452380D01*
X155119047Y-66452380D01*
X155214285Y-66404761D01*
X155261904Y-66357142D01*
X155309523Y-66261904D01*
X155309523Y-66071428D01*
X155261904Y-65976190D01*
X155214285Y-65928571D01*
X155119047Y-65880952D01*
X156214285Y-65452380D02*
X155738095Y-65452380D01*
X155690476Y-65928571D01*
X155738095Y-65880952D01*
X155833333Y-65833333D01*
X156071428Y-65833333D01*
X156166666Y-65880952D01*
X156214285Y-65928571D01*
X156261904Y-66023809D01*
X156261904Y-66261904D01*
X156214285Y-66357142D01*
X156166666Y-66404761D01*
X156071428Y-66452380D01*
X155833333Y-66452380D01*
X155738095Y-66404761D01*
X155690476Y-66357142D01*
%TO.C,R84*%
X194357142Y-58452380D02*
X194023809Y-57976190D01*
X193785714Y-58452380D02*
X193785714Y-57452380D01*
X194166666Y-57452380D01*
X194261904Y-57500000D01*
X194309523Y-57547619D01*
X194357142Y-57642857D01*
X194357142Y-57785714D01*
X194309523Y-57880952D01*
X194261904Y-57928571D01*
X194166666Y-57976190D01*
X193785714Y-57976190D01*
X194928571Y-57880952D02*
X194833333Y-57833333D01*
X194785714Y-57785714D01*
X194738095Y-57690476D01*
X194738095Y-57642857D01*
X194785714Y-57547619D01*
X194833333Y-57500000D01*
X194928571Y-57452380D01*
X195119047Y-57452380D01*
X195214285Y-57500000D01*
X195261904Y-57547619D01*
X195309523Y-57642857D01*
X195309523Y-57690476D01*
X195261904Y-57785714D01*
X195214285Y-57833333D01*
X195119047Y-57880952D01*
X194928571Y-57880952D01*
X194833333Y-57928571D01*
X194785714Y-57976190D01*
X194738095Y-58071428D01*
X194738095Y-58261904D01*
X194785714Y-58357142D01*
X194833333Y-58404761D01*
X194928571Y-58452380D01*
X195119047Y-58452380D01*
X195214285Y-58404761D01*
X195261904Y-58357142D01*
X195309523Y-58261904D01*
X195309523Y-58071428D01*
X195261904Y-57976190D01*
X195214285Y-57928571D01*
X195119047Y-57880952D01*
X196166666Y-57785714D02*
X196166666Y-58452380D01*
X195928571Y-57404761D02*
X195690476Y-58119047D01*
X196309523Y-58119047D01*
%TO.C,R83*%
X186357142Y-58452380D02*
X186023809Y-57976190D01*
X185785714Y-58452380D02*
X185785714Y-57452380D01*
X186166666Y-57452380D01*
X186261904Y-57500000D01*
X186309523Y-57547619D01*
X186357142Y-57642857D01*
X186357142Y-57785714D01*
X186309523Y-57880952D01*
X186261904Y-57928571D01*
X186166666Y-57976190D01*
X185785714Y-57976190D01*
X186928571Y-57880952D02*
X186833333Y-57833333D01*
X186785714Y-57785714D01*
X186738095Y-57690476D01*
X186738095Y-57642857D01*
X186785714Y-57547619D01*
X186833333Y-57500000D01*
X186928571Y-57452380D01*
X187119047Y-57452380D01*
X187214285Y-57500000D01*
X187261904Y-57547619D01*
X187309523Y-57642857D01*
X187309523Y-57690476D01*
X187261904Y-57785714D01*
X187214285Y-57833333D01*
X187119047Y-57880952D01*
X186928571Y-57880952D01*
X186833333Y-57928571D01*
X186785714Y-57976190D01*
X186738095Y-58071428D01*
X186738095Y-58261904D01*
X186785714Y-58357142D01*
X186833333Y-58404761D01*
X186928571Y-58452380D01*
X187119047Y-58452380D01*
X187214285Y-58404761D01*
X187261904Y-58357142D01*
X187309523Y-58261904D01*
X187309523Y-58071428D01*
X187261904Y-57976190D01*
X187214285Y-57928571D01*
X187119047Y-57880952D01*
X187642857Y-57452380D02*
X188261904Y-57452380D01*
X187928571Y-57833333D01*
X188071428Y-57833333D01*
X188166666Y-57880952D01*
X188214285Y-57928571D01*
X188261904Y-58023809D01*
X188261904Y-58261904D01*
X188214285Y-58357142D01*
X188166666Y-58404761D01*
X188071428Y-58452380D01*
X187785714Y-58452380D01*
X187690476Y-58404761D01*
X187642857Y-58357142D01*
%TO.C,R82*%
X178357142Y-58452380D02*
X178023809Y-57976190D01*
X177785714Y-58452380D02*
X177785714Y-57452380D01*
X178166666Y-57452380D01*
X178261904Y-57500000D01*
X178309523Y-57547619D01*
X178357142Y-57642857D01*
X178357142Y-57785714D01*
X178309523Y-57880952D01*
X178261904Y-57928571D01*
X178166666Y-57976190D01*
X177785714Y-57976190D01*
X178928571Y-57880952D02*
X178833333Y-57833333D01*
X178785714Y-57785714D01*
X178738095Y-57690476D01*
X178738095Y-57642857D01*
X178785714Y-57547619D01*
X178833333Y-57500000D01*
X178928571Y-57452380D01*
X179119047Y-57452380D01*
X179214285Y-57500000D01*
X179261904Y-57547619D01*
X179309523Y-57642857D01*
X179309523Y-57690476D01*
X179261904Y-57785714D01*
X179214285Y-57833333D01*
X179119047Y-57880952D01*
X178928571Y-57880952D01*
X178833333Y-57928571D01*
X178785714Y-57976190D01*
X178738095Y-58071428D01*
X178738095Y-58261904D01*
X178785714Y-58357142D01*
X178833333Y-58404761D01*
X178928571Y-58452380D01*
X179119047Y-58452380D01*
X179214285Y-58404761D01*
X179261904Y-58357142D01*
X179309523Y-58261904D01*
X179309523Y-58071428D01*
X179261904Y-57976190D01*
X179214285Y-57928571D01*
X179119047Y-57880952D01*
X179690476Y-57547619D02*
X179738095Y-57500000D01*
X179833333Y-57452380D01*
X180071428Y-57452380D01*
X180166666Y-57500000D01*
X180214285Y-57547619D01*
X180261904Y-57642857D01*
X180261904Y-57738095D01*
X180214285Y-57880952D01*
X179642857Y-58452380D01*
X180261904Y-58452380D01*
%TO.C,R81*%
X170357142Y-58452380D02*
X170023809Y-57976190D01*
X169785714Y-58452380D02*
X169785714Y-57452380D01*
X170166666Y-57452380D01*
X170261904Y-57500000D01*
X170309523Y-57547619D01*
X170357142Y-57642857D01*
X170357142Y-57785714D01*
X170309523Y-57880952D01*
X170261904Y-57928571D01*
X170166666Y-57976190D01*
X169785714Y-57976190D01*
X170928571Y-57880952D02*
X170833333Y-57833333D01*
X170785714Y-57785714D01*
X170738095Y-57690476D01*
X170738095Y-57642857D01*
X170785714Y-57547619D01*
X170833333Y-57500000D01*
X170928571Y-57452380D01*
X171119047Y-57452380D01*
X171214285Y-57500000D01*
X171261904Y-57547619D01*
X171309523Y-57642857D01*
X171309523Y-57690476D01*
X171261904Y-57785714D01*
X171214285Y-57833333D01*
X171119047Y-57880952D01*
X170928571Y-57880952D01*
X170833333Y-57928571D01*
X170785714Y-57976190D01*
X170738095Y-58071428D01*
X170738095Y-58261904D01*
X170785714Y-58357142D01*
X170833333Y-58404761D01*
X170928571Y-58452380D01*
X171119047Y-58452380D01*
X171214285Y-58404761D01*
X171261904Y-58357142D01*
X171309523Y-58261904D01*
X171309523Y-58071428D01*
X171261904Y-57976190D01*
X171214285Y-57928571D01*
X171119047Y-57880952D01*
X172261904Y-58452380D02*
X171690476Y-58452380D01*
X171976190Y-58452380D02*
X171976190Y-57452380D01*
X171880952Y-57595238D01*
X171785714Y-57690476D01*
X171690476Y-57738095D01*
%TO.C,R80*%
X162357142Y-58452380D02*
X162023809Y-57976190D01*
X161785714Y-58452380D02*
X161785714Y-57452380D01*
X162166666Y-57452380D01*
X162261904Y-57500000D01*
X162309523Y-57547619D01*
X162357142Y-57642857D01*
X162357142Y-57785714D01*
X162309523Y-57880952D01*
X162261904Y-57928571D01*
X162166666Y-57976190D01*
X161785714Y-57976190D01*
X162928571Y-57880952D02*
X162833333Y-57833333D01*
X162785714Y-57785714D01*
X162738095Y-57690476D01*
X162738095Y-57642857D01*
X162785714Y-57547619D01*
X162833333Y-57500000D01*
X162928571Y-57452380D01*
X163119047Y-57452380D01*
X163214285Y-57500000D01*
X163261904Y-57547619D01*
X163309523Y-57642857D01*
X163309523Y-57690476D01*
X163261904Y-57785714D01*
X163214285Y-57833333D01*
X163119047Y-57880952D01*
X162928571Y-57880952D01*
X162833333Y-57928571D01*
X162785714Y-57976190D01*
X162738095Y-58071428D01*
X162738095Y-58261904D01*
X162785714Y-58357142D01*
X162833333Y-58404761D01*
X162928571Y-58452380D01*
X163119047Y-58452380D01*
X163214285Y-58404761D01*
X163261904Y-58357142D01*
X163309523Y-58261904D01*
X163309523Y-58071428D01*
X163261904Y-57976190D01*
X163214285Y-57928571D01*
X163119047Y-57880952D01*
X163928571Y-57452380D02*
X164023809Y-57452380D01*
X164119047Y-57500000D01*
X164166666Y-57547619D01*
X164214285Y-57642857D01*
X164261904Y-57833333D01*
X164261904Y-58071428D01*
X164214285Y-58261904D01*
X164166666Y-58357142D01*
X164119047Y-58404761D01*
X164023809Y-58452380D01*
X163928571Y-58452380D01*
X163833333Y-58404761D01*
X163785714Y-58357142D01*
X163738095Y-58261904D01*
X163690476Y-58071428D01*
X163690476Y-57833333D01*
X163738095Y-57642857D01*
X163785714Y-57547619D01*
X163833333Y-57500000D01*
X163928571Y-57452380D01*
%TO.C,R79*%
X154357142Y-58452380D02*
X154023809Y-57976190D01*
X153785714Y-58452380D02*
X153785714Y-57452380D01*
X154166666Y-57452380D01*
X154261904Y-57500000D01*
X154309523Y-57547619D01*
X154357142Y-57642857D01*
X154357142Y-57785714D01*
X154309523Y-57880952D01*
X154261904Y-57928571D01*
X154166666Y-57976190D01*
X153785714Y-57976190D01*
X154690476Y-57452380D02*
X155357142Y-57452380D01*
X154928571Y-58452380D01*
X155785714Y-58452380D02*
X155976190Y-58452380D01*
X156071428Y-58404761D01*
X156119047Y-58357142D01*
X156214285Y-58214285D01*
X156261904Y-58023809D01*
X156261904Y-57642857D01*
X156214285Y-57547619D01*
X156166666Y-57500000D01*
X156071428Y-57452380D01*
X155880952Y-57452380D01*
X155785714Y-57500000D01*
X155738095Y-57547619D01*
X155690476Y-57642857D01*
X155690476Y-57880952D01*
X155738095Y-57976190D01*
X155785714Y-58023809D01*
X155880952Y-58071428D01*
X156071428Y-58071428D01*
X156166666Y-58023809D01*
X156214285Y-57976190D01*
X156261904Y-57880952D01*
%TO.C,R78*%
X194357142Y-50452380D02*
X194023809Y-49976190D01*
X193785714Y-50452380D02*
X193785714Y-49452380D01*
X194166666Y-49452380D01*
X194261904Y-49500000D01*
X194309523Y-49547619D01*
X194357142Y-49642857D01*
X194357142Y-49785714D01*
X194309523Y-49880952D01*
X194261904Y-49928571D01*
X194166666Y-49976190D01*
X193785714Y-49976190D01*
X194690476Y-49452380D02*
X195357142Y-49452380D01*
X194928571Y-50452380D01*
X195880952Y-49880952D02*
X195785714Y-49833333D01*
X195738095Y-49785714D01*
X195690476Y-49690476D01*
X195690476Y-49642857D01*
X195738095Y-49547619D01*
X195785714Y-49500000D01*
X195880952Y-49452380D01*
X196071428Y-49452380D01*
X196166666Y-49500000D01*
X196214285Y-49547619D01*
X196261904Y-49642857D01*
X196261904Y-49690476D01*
X196214285Y-49785714D01*
X196166666Y-49833333D01*
X196071428Y-49880952D01*
X195880952Y-49880952D01*
X195785714Y-49928571D01*
X195738095Y-49976190D01*
X195690476Y-50071428D01*
X195690476Y-50261904D01*
X195738095Y-50357142D01*
X195785714Y-50404761D01*
X195880952Y-50452380D01*
X196071428Y-50452380D01*
X196166666Y-50404761D01*
X196214285Y-50357142D01*
X196261904Y-50261904D01*
X196261904Y-50071428D01*
X196214285Y-49976190D01*
X196166666Y-49928571D01*
X196071428Y-49880952D01*
%TO.C,R77*%
X186357142Y-50452380D02*
X186023809Y-49976190D01*
X185785714Y-50452380D02*
X185785714Y-49452380D01*
X186166666Y-49452380D01*
X186261904Y-49500000D01*
X186309523Y-49547619D01*
X186357142Y-49642857D01*
X186357142Y-49785714D01*
X186309523Y-49880952D01*
X186261904Y-49928571D01*
X186166666Y-49976190D01*
X185785714Y-49976190D01*
X186690476Y-49452380D02*
X187357142Y-49452380D01*
X186928571Y-50452380D01*
X187642857Y-49452380D02*
X188309523Y-49452380D01*
X187880952Y-50452380D01*
%TO.C,R76*%
X178357142Y-50452380D02*
X178023809Y-49976190D01*
X177785714Y-50452380D02*
X177785714Y-49452380D01*
X178166666Y-49452380D01*
X178261904Y-49500000D01*
X178309523Y-49547619D01*
X178357142Y-49642857D01*
X178357142Y-49785714D01*
X178309523Y-49880952D01*
X178261904Y-49928571D01*
X178166666Y-49976190D01*
X177785714Y-49976190D01*
X178690476Y-49452380D02*
X179357142Y-49452380D01*
X178928571Y-50452380D01*
X180166666Y-49452380D02*
X179976190Y-49452380D01*
X179880952Y-49500000D01*
X179833333Y-49547619D01*
X179738095Y-49690476D01*
X179690476Y-49880952D01*
X179690476Y-50261904D01*
X179738095Y-50357142D01*
X179785714Y-50404761D01*
X179880952Y-50452380D01*
X180071428Y-50452380D01*
X180166666Y-50404761D01*
X180214285Y-50357142D01*
X180261904Y-50261904D01*
X180261904Y-50023809D01*
X180214285Y-49928571D01*
X180166666Y-49880952D01*
X180071428Y-49833333D01*
X179880952Y-49833333D01*
X179785714Y-49880952D01*
X179738095Y-49928571D01*
X179690476Y-50023809D01*
%TO.C,R75*%
X170357142Y-50452380D02*
X170023809Y-49976190D01*
X169785714Y-50452380D02*
X169785714Y-49452380D01*
X170166666Y-49452380D01*
X170261904Y-49500000D01*
X170309523Y-49547619D01*
X170357142Y-49642857D01*
X170357142Y-49785714D01*
X170309523Y-49880952D01*
X170261904Y-49928571D01*
X170166666Y-49976190D01*
X169785714Y-49976190D01*
X170690476Y-49452380D02*
X171357142Y-49452380D01*
X170928571Y-50452380D01*
X172214285Y-49452380D02*
X171738095Y-49452380D01*
X171690476Y-49928571D01*
X171738095Y-49880952D01*
X171833333Y-49833333D01*
X172071428Y-49833333D01*
X172166666Y-49880952D01*
X172214285Y-49928571D01*
X172261904Y-50023809D01*
X172261904Y-50261904D01*
X172214285Y-50357142D01*
X172166666Y-50404761D01*
X172071428Y-50452380D01*
X171833333Y-50452380D01*
X171738095Y-50404761D01*
X171690476Y-50357142D01*
%TO.C,R74*%
X162357142Y-50452380D02*
X162023809Y-49976190D01*
X161785714Y-50452380D02*
X161785714Y-49452380D01*
X162166666Y-49452380D01*
X162261904Y-49500000D01*
X162309523Y-49547619D01*
X162357142Y-49642857D01*
X162357142Y-49785714D01*
X162309523Y-49880952D01*
X162261904Y-49928571D01*
X162166666Y-49976190D01*
X161785714Y-49976190D01*
X162690476Y-49452380D02*
X163357142Y-49452380D01*
X162928571Y-50452380D01*
X164166666Y-49785714D02*
X164166666Y-50452380D01*
X163928571Y-49404761D02*
X163690476Y-50119047D01*
X164309523Y-50119047D01*
%TO.C,R73*%
X154357142Y-50452380D02*
X154023809Y-49976190D01*
X153785714Y-50452380D02*
X153785714Y-49452380D01*
X154166666Y-49452380D01*
X154261904Y-49500000D01*
X154309523Y-49547619D01*
X154357142Y-49642857D01*
X154357142Y-49785714D01*
X154309523Y-49880952D01*
X154261904Y-49928571D01*
X154166666Y-49976190D01*
X153785714Y-49976190D01*
X154690476Y-49452380D02*
X155357142Y-49452380D01*
X154928571Y-50452380D01*
X155642857Y-49452380D02*
X156261904Y-49452380D01*
X155928571Y-49833333D01*
X156071428Y-49833333D01*
X156166666Y-49880952D01*
X156214285Y-49928571D01*
X156261904Y-50023809D01*
X156261904Y-50261904D01*
X156214285Y-50357142D01*
X156166666Y-50404761D01*
X156071428Y-50452380D01*
X155785714Y-50452380D01*
X155690476Y-50404761D01*
X155642857Y-50357142D01*
%TO.C,R72*%
X194357142Y-42452380D02*
X194023809Y-41976190D01*
X193785714Y-42452380D02*
X193785714Y-41452380D01*
X194166666Y-41452380D01*
X194261904Y-41500000D01*
X194309523Y-41547619D01*
X194357142Y-41642857D01*
X194357142Y-41785714D01*
X194309523Y-41880952D01*
X194261904Y-41928571D01*
X194166666Y-41976190D01*
X193785714Y-41976190D01*
X194690476Y-41452380D02*
X195357142Y-41452380D01*
X194928571Y-42452380D01*
X195690476Y-41547619D02*
X195738095Y-41500000D01*
X195833333Y-41452380D01*
X196071428Y-41452380D01*
X196166666Y-41500000D01*
X196214285Y-41547619D01*
X196261904Y-41642857D01*
X196261904Y-41738095D01*
X196214285Y-41880952D01*
X195642857Y-42452380D01*
X196261904Y-42452380D01*
%TO.C,R71*%
X186357142Y-42452380D02*
X186023809Y-41976190D01*
X185785714Y-42452380D02*
X185785714Y-41452380D01*
X186166666Y-41452380D01*
X186261904Y-41500000D01*
X186309523Y-41547619D01*
X186357142Y-41642857D01*
X186357142Y-41785714D01*
X186309523Y-41880952D01*
X186261904Y-41928571D01*
X186166666Y-41976190D01*
X185785714Y-41976190D01*
X186690476Y-41452380D02*
X187357142Y-41452380D01*
X186928571Y-42452380D01*
X188261904Y-42452380D02*
X187690476Y-42452380D01*
X187976190Y-42452380D02*
X187976190Y-41452380D01*
X187880952Y-41595238D01*
X187785714Y-41690476D01*
X187690476Y-41738095D01*
%TO.C,R70*%
X178357142Y-42452380D02*
X178023809Y-41976190D01*
X177785714Y-42452380D02*
X177785714Y-41452380D01*
X178166666Y-41452380D01*
X178261904Y-41500000D01*
X178309523Y-41547619D01*
X178357142Y-41642857D01*
X178357142Y-41785714D01*
X178309523Y-41880952D01*
X178261904Y-41928571D01*
X178166666Y-41976190D01*
X177785714Y-41976190D01*
X178690476Y-41452380D02*
X179357142Y-41452380D01*
X178928571Y-42452380D01*
X179928571Y-41452380D02*
X180023809Y-41452380D01*
X180119047Y-41500000D01*
X180166666Y-41547619D01*
X180214285Y-41642857D01*
X180261904Y-41833333D01*
X180261904Y-42071428D01*
X180214285Y-42261904D01*
X180166666Y-42357142D01*
X180119047Y-42404761D01*
X180023809Y-42452380D01*
X179928571Y-42452380D01*
X179833333Y-42404761D01*
X179785714Y-42357142D01*
X179738095Y-42261904D01*
X179690476Y-42071428D01*
X179690476Y-41833333D01*
X179738095Y-41642857D01*
X179785714Y-41547619D01*
X179833333Y-41500000D01*
X179928571Y-41452380D01*
%TO.C,R69*%
X170357142Y-42452380D02*
X170023809Y-41976190D01*
X169785714Y-42452380D02*
X169785714Y-41452380D01*
X170166666Y-41452380D01*
X170261904Y-41500000D01*
X170309523Y-41547619D01*
X170357142Y-41642857D01*
X170357142Y-41785714D01*
X170309523Y-41880952D01*
X170261904Y-41928571D01*
X170166666Y-41976190D01*
X169785714Y-41976190D01*
X171214285Y-41452380D02*
X171023809Y-41452380D01*
X170928571Y-41500000D01*
X170880952Y-41547619D01*
X170785714Y-41690476D01*
X170738095Y-41880952D01*
X170738095Y-42261904D01*
X170785714Y-42357142D01*
X170833333Y-42404761D01*
X170928571Y-42452380D01*
X171119047Y-42452380D01*
X171214285Y-42404761D01*
X171261904Y-42357142D01*
X171309523Y-42261904D01*
X171309523Y-42023809D01*
X171261904Y-41928571D01*
X171214285Y-41880952D01*
X171119047Y-41833333D01*
X170928571Y-41833333D01*
X170833333Y-41880952D01*
X170785714Y-41928571D01*
X170738095Y-42023809D01*
X171785714Y-42452380D02*
X171976190Y-42452380D01*
X172071428Y-42404761D01*
X172119047Y-42357142D01*
X172214285Y-42214285D01*
X172261904Y-42023809D01*
X172261904Y-41642857D01*
X172214285Y-41547619D01*
X172166666Y-41500000D01*
X172071428Y-41452380D01*
X171880952Y-41452380D01*
X171785714Y-41500000D01*
X171738095Y-41547619D01*
X171690476Y-41642857D01*
X171690476Y-41880952D01*
X171738095Y-41976190D01*
X171785714Y-42023809D01*
X171880952Y-42071428D01*
X172071428Y-42071428D01*
X172166666Y-42023809D01*
X172214285Y-41976190D01*
X172261904Y-41880952D01*
%TO.C,R68*%
X162357142Y-42452380D02*
X162023809Y-41976190D01*
X161785714Y-42452380D02*
X161785714Y-41452380D01*
X162166666Y-41452380D01*
X162261904Y-41500000D01*
X162309523Y-41547619D01*
X162357142Y-41642857D01*
X162357142Y-41785714D01*
X162309523Y-41880952D01*
X162261904Y-41928571D01*
X162166666Y-41976190D01*
X161785714Y-41976190D01*
X163214285Y-41452380D02*
X163023809Y-41452380D01*
X162928571Y-41500000D01*
X162880952Y-41547619D01*
X162785714Y-41690476D01*
X162738095Y-41880952D01*
X162738095Y-42261904D01*
X162785714Y-42357142D01*
X162833333Y-42404761D01*
X162928571Y-42452380D01*
X163119047Y-42452380D01*
X163214285Y-42404761D01*
X163261904Y-42357142D01*
X163309523Y-42261904D01*
X163309523Y-42023809D01*
X163261904Y-41928571D01*
X163214285Y-41880952D01*
X163119047Y-41833333D01*
X162928571Y-41833333D01*
X162833333Y-41880952D01*
X162785714Y-41928571D01*
X162738095Y-42023809D01*
X163880952Y-41880952D02*
X163785714Y-41833333D01*
X163738095Y-41785714D01*
X163690476Y-41690476D01*
X163690476Y-41642857D01*
X163738095Y-41547619D01*
X163785714Y-41500000D01*
X163880952Y-41452380D01*
X164071428Y-41452380D01*
X164166666Y-41500000D01*
X164214285Y-41547619D01*
X164261904Y-41642857D01*
X164261904Y-41690476D01*
X164214285Y-41785714D01*
X164166666Y-41833333D01*
X164071428Y-41880952D01*
X163880952Y-41880952D01*
X163785714Y-41928571D01*
X163738095Y-41976190D01*
X163690476Y-42071428D01*
X163690476Y-42261904D01*
X163738095Y-42357142D01*
X163785714Y-42404761D01*
X163880952Y-42452380D01*
X164071428Y-42452380D01*
X164166666Y-42404761D01*
X164214285Y-42357142D01*
X164261904Y-42261904D01*
X164261904Y-42071428D01*
X164214285Y-41976190D01*
X164166666Y-41928571D01*
X164071428Y-41880952D01*
%TO.C,R67*%
X154357142Y-42452380D02*
X154023809Y-41976190D01*
X153785714Y-42452380D02*
X153785714Y-41452380D01*
X154166666Y-41452380D01*
X154261904Y-41500000D01*
X154309523Y-41547619D01*
X154357142Y-41642857D01*
X154357142Y-41785714D01*
X154309523Y-41880952D01*
X154261904Y-41928571D01*
X154166666Y-41976190D01*
X153785714Y-41976190D01*
X155214285Y-41452380D02*
X155023809Y-41452380D01*
X154928571Y-41500000D01*
X154880952Y-41547619D01*
X154785714Y-41690476D01*
X154738095Y-41880952D01*
X154738095Y-42261904D01*
X154785714Y-42357142D01*
X154833333Y-42404761D01*
X154928571Y-42452380D01*
X155119047Y-42452380D01*
X155214285Y-42404761D01*
X155261904Y-42357142D01*
X155309523Y-42261904D01*
X155309523Y-42023809D01*
X155261904Y-41928571D01*
X155214285Y-41880952D01*
X155119047Y-41833333D01*
X154928571Y-41833333D01*
X154833333Y-41880952D01*
X154785714Y-41928571D01*
X154738095Y-42023809D01*
X155642857Y-41452380D02*
X156309523Y-41452380D01*
X155880952Y-42452380D01*
%TO.C,R66*%
X194357142Y-34452380D02*
X194023809Y-33976190D01*
X193785714Y-34452380D02*
X193785714Y-33452380D01*
X194166666Y-33452380D01*
X194261904Y-33500000D01*
X194309523Y-33547619D01*
X194357142Y-33642857D01*
X194357142Y-33785714D01*
X194309523Y-33880952D01*
X194261904Y-33928571D01*
X194166666Y-33976190D01*
X193785714Y-33976190D01*
X195214285Y-33452380D02*
X195023809Y-33452380D01*
X194928571Y-33500000D01*
X194880952Y-33547619D01*
X194785714Y-33690476D01*
X194738095Y-33880952D01*
X194738095Y-34261904D01*
X194785714Y-34357142D01*
X194833333Y-34404761D01*
X194928571Y-34452380D01*
X195119047Y-34452380D01*
X195214285Y-34404761D01*
X195261904Y-34357142D01*
X195309523Y-34261904D01*
X195309523Y-34023809D01*
X195261904Y-33928571D01*
X195214285Y-33880952D01*
X195119047Y-33833333D01*
X194928571Y-33833333D01*
X194833333Y-33880952D01*
X194785714Y-33928571D01*
X194738095Y-34023809D01*
X196166666Y-33452380D02*
X195976190Y-33452380D01*
X195880952Y-33500000D01*
X195833333Y-33547619D01*
X195738095Y-33690476D01*
X195690476Y-33880952D01*
X195690476Y-34261904D01*
X195738095Y-34357142D01*
X195785714Y-34404761D01*
X195880952Y-34452380D01*
X196071428Y-34452380D01*
X196166666Y-34404761D01*
X196214285Y-34357142D01*
X196261904Y-34261904D01*
X196261904Y-34023809D01*
X196214285Y-33928571D01*
X196166666Y-33880952D01*
X196071428Y-33833333D01*
X195880952Y-33833333D01*
X195785714Y-33880952D01*
X195738095Y-33928571D01*
X195690476Y-34023809D01*
%TO.C,R65*%
X186357142Y-34452380D02*
X186023809Y-33976190D01*
X185785714Y-34452380D02*
X185785714Y-33452380D01*
X186166666Y-33452380D01*
X186261904Y-33500000D01*
X186309523Y-33547619D01*
X186357142Y-33642857D01*
X186357142Y-33785714D01*
X186309523Y-33880952D01*
X186261904Y-33928571D01*
X186166666Y-33976190D01*
X185785714Y-33976190D01*
X187214285Y-33452380D02*
X187023809Y-33452380D01*
X186928571Y-33500000D01*
X186880952Y-33547619D01*
X186785714Y-33690476D01*
X186738095Y-33880952D01*
X186738095Y-34261904D01*
X186785714Y-34357142D01*
X186833333Y-34404761D01*
X186928571Y-34452380D01*
X187119047Y-34452380D01*
X187214285Y-34404761D01*
X187261904Y-34357142D01*
X187309523Y-34261904D01*
X187309523Y-34023809D01*
X187261904Y-33928571D01*
X187214285Y-33880952D01*
X187119047Y-33833333D01*
X186928571Y-33833333D01*
X186833333Y-33880952D01*
X186785714Y-33928571D01*
X186738095Y-34023809D01*
X188214285Y-33452380D02*
X187738095Y-33452380D01*
X187690476Y-33928571D01*
X187738095Y-33880952D01*
X187833333Y-33833333D01*
X188071428Y-33833333D01*
X188166666Y-33880952D01*
X188214285Y-33928571D01*
X188261904Y-34023809D01*
X188261904Y-34261904D01*
X188214285Y-34357142D01*
X188166666Y-34404761D01*
X188071428Y-34452380D01*
X187833333Y-34452380D01*
X187738095Y-34404761D01*
X187690476Y-34357142D01*
%TO.C,R64*%
X178357142Y-34452380D02*
X178023809Y-33976190D01*
X177785714Y-34452380D02*
X177785714Y-33452380D01*
X178166666Y-33452380D01*
X178261904Y-33500000D01*
X178309523Y-33547619D01*
X178357142Y-33642857D01*
X178357142Y-33785714D01*
X178309523Y-33880952D01*
X178261904Y-33928571D01*
X178166666Y-33976190D01*
X177785714Y-33976190D01*
X179214285Y-33452380D02*
X179023809Y-33452380D01*
X178928571Y-33500000D01*
X178880952Y-33547619D01*
X178785714Y-33690476D01*
X178738095Y-33880952D01*
X178738095Y-34261904D01*
X178785714Y-34357142D01*
X178833333Y-34404761D01*
X178928571Y-34452380D01*
X179119047Y-34452380D01*
X179214285Y-34404761D01*
X179261904Y-34357142D01*
X179309523Y-34261904D01*
X179309523Y-34023809D01*
X179261904Y-33928571D01*
X179214285Y-33880952D01*
X179119047Y-33833333D01*
X178928571Y-33833333D01*
X178833333Y-33880952D01*
X178785714Y-33928571D01*
X178738095Y-34023809D01*
X180166666Y-33785714D02*
X180166666Y-34452380D01*
X179928571Y-33404761D02*
X179690476Y-34119047D01*
X180309523Y-34119047D01*
%TO.C,R63*%
X170357142Y-34452380D02*
X170023809Y-33976190D01*
X169785714Y-34452380D02*
X169785714Y-33452380D01*
X170166666Y-33452380D01*
X170261904Y-33500000D01*
X170309523Y-33547619D01*
X170357142Y-33642857D01*
X170357142Y-33785714D01*
X170309523Y-33880952D01*
X170261904Y-33928571D01*
X170166666Y-33976190D01*
X169785714Y-33976190D01*
X171214285Y-33452380D02*
X171023809Y-33452380D01*
X170928571Y-33500000D01*
X170880952Y-33547619D01*
X170785714Y-33690476D01*
X170738095Y-33880952D01*
X170738095Y-34261904D01*
X170785714Y-34357142D01*
X170833333Y-34404761D01*
X170928571Y-34452380D01*
X171119047Y-34452380D01*
X171214285Y-34404761D01*
X171261904Y-34357142D01*
X171309523Y-34261904D01*
X171309523Y-34023809D01*
X171261904Y-33928571D01*
X171214285Y-33880952D01*
X171119047Y-33833333D01*
X170928571Y-33833333D01*
X170833333Y-33880952D01*
X170785714Y-33928571D01*
X170738095Y-34023809D01*
X171642857Y-33452380D02*
X172261904Y-33452380D01*
X171928571Y-33833333D01*
X172071428Y-33833333D01*
X172166666Y-33880952D01*
X172214285Y-33928571D01*
X172261904Y-34023809D01*
X172261904Y-34261904D01*
X172214285Y-34357142D01*
X172166666Y-34404761D01*
X172071428Y-34452380D01*
X171785714Y-34452380D01*
X171690476Y-34404761D01*
X171642857Y-34357142D01*
%TO.C,R62*%
X162357142Y-34452380D02*
X162023809Y-33976190D01*
X161785714Y-34452380D02*
X161785714Y-33452380D01*
X162166666Y-33452380D01*
X162261904Y-33500000D01*
X162309523Y-33547619D01*
X162357142Y-33642857D01*
X162357142Y-33785714D01*
X162309523Y-33880952D01*
X162261904Y-33928571D01*
X162166666Y-33976190D01*
X161785714Y-33976190D01*
X163214285Y-33452380D02*
X163023809Y-33452380D01*
X162928571Y-33500000D01*
X162880952Y-33547619D01*
X162785714Y-33690476D01*
X162738095Y-33880952D01*
X162738095Y-34261904D01*
X162785714Y-34357142D01*
X162833333Y-34404761D01*
X162928571Y-34452380D01*
X163119047Y-34452380D01*
X163214285Y-34404761D01*
X163261904Y-34357142D01*
X163309523Y-34261904D01*
X163309523Y-34023809D01*
X163261904Y-33928571D01*
X163214285Y-33880952D01*
X163119047Y-33833333D01*
X162928571Y-33833333D01*
X162833333Y-33880952D01*
X162785714Y-33928571D01*
X162738095Y-34023809D01*
X163690476Y-33547619D02*
X163738095Y-33500000D01*
X163833333Y-33452380D01*
X164071428Y-33452380D01*
X164166666Y-33500000D01*
X164214285Y-33547619D01*
X164261904Y-33642857D01*
X164261904Y-33738095D01*
X164214285Y-33880952D01*
X163642857Y-34452380D01*
X164261904Y-34452380D01*
%TO.C,R61*%
X154357142Y-34452380D02*
X154023809Y-33976190D01*
X153785714Y-34452380D02*
X153785714Y-33452380D01*
X154166666Y-33452380D01*
X154261904Y-33500000D01*
X154309523Y-33547619D01*
X154357142Y-33642857D01*
X154357142Y-33785714D01*
X154309523Y-33880952D01*
X154261904Y-33928571D01*
X154166666Y-33976190D01*
X153785714Y-33976190D01*
X155214285Y-33452380D02*
X155023809Y-33452380D01*
X154928571Y-33500000D01*
X154880952Y-33547619D01*
X154785714Y-33690476D01*
X154738095Y-33880952D01*
X154738095Y-34261904D01*
X154785714Y-34357142D01*
X154833333Y-34404761D01*
X154928571Y-34452380D01*
X155119047Y-34452380D01*
X155214285Y-34404761D01*
X155261904Y-34357142D01*
X155309523Y-34261904D01*
X155309523Y-34023809D01*
X155261904Y-33928571D01*
X155214285Y-33880952D01*
X155119047Y-33833333D01*
X154928571Y-33833333D01*
X154833333Y-33880952D01*
X154785714Y-33928571D01*
X154738095Y-34023809D01*
X156261904Y-34452380D02*
X155690476Y-34452380D01*
X155976190Y-34452380D02*
X155976190Y-33452380D01*
X155880952Y-33595238D01*
X155785714Y-33690476D01*
X155690476Y-33738095D01*
%TO.C,R60*%
X194357142Y-26452380D02*
X194023809Y-25976190D01*
X193785714Y-26452380D02*
X193785714Y-25452380D01*
X194166666Y-25452380D01*
X194261904Y-25500000D01*
X194309523Y-25547619D01*
X194357142Y-25642857D01*
X194357142Y-25785714D01*
X194309523Y-25880952D01*
X194261904Y-25928571D01*
X194166666Y-25976190D01*
X193785714Y-25976190D01*
X195214285Y-25452380D02*
X195023809Y-25452380D01*
X194928571Y-25500000D01*
X194880952Y-25547619D01*
X194785714Y-25690476D01*
X194738095Y-25880952D01*
X194738095Y-26261904D01*
X194785714Y-26357142D01*
X194833333Y-26404761D01*
X194928571Y-26452380D01*
X195119047Y-26452380D01*
X195214285Y-26404761D01*
X195261904Y-26357142D01*
X195309523Y-26261904D01*
X195309523Y-26023809D01*
X195261904Y-25928571D01*
X195214285Y-25880952D01*
X195119047Y-25833333D01*
X194928571Y-25833333D01*
X194833333Y-25880952D01*
X194785714Y-25928571D01*
X194738095Y-26023809D01*
X195928571Y-25452380D02*
X196023809Y-25452380D01*
X196119047Y-25500000D01*
X196166666Y-25547619D01*
X196214285Y-25642857D01*
X196261904Y-25833333D01*
X196261904Y-26071428D01*
X196214285Y-26261904D01*
X196166666Y-26357142D01*
X196119047Y-26404761D01*
X196023809Y-26452380D01*
X195928571Y-26452380D01*
X195833333Y-26404761D01*
X195785714Y-26357142D01*
X195738095Y-26261904D01*
X195690476Y-26071428D01*
X195690476Y-25833333D01*
X195738095Y-25642857D01*
X195785714Y-25547619D01*
X195833333Y-25500000D01*
X195928571Y-25452380D01*
%TO.C,R59*%
X186357142Y-26452380D02*
X186023809Y-25976190D01*
X185785714Y-26452380D02*
X185785714Y-25452380D01*
X186166666Y-25452380D01*
X186261904Y-25500000D01*
X186309523Y-25547619D01*
X186357142Y-25642857D01*
X186357142Y-25785714D01*
X186309523Y-25880952D01*
X186261904Y-25928571D01*
X186166666Y-25976190D01*
X185785714Y-25976190D01*
X187261904Y-25452380D02*
X186785714Y-25452380D01*
X186738095Y-25928571D01*
X186785714Y-25880952D01*
X186880952Y-25833333D01*
X187119047Y-25833333D01*
X187214285Y-25880952D01*
X187261904Y-25928571D01*
X187309523Y-26023809D01*
X187309523Y-26261904D01*
X187261904Y-26357142D01*
X187214285Y-26404761D01*
X187119047Y-26452380D01*
X186880952Y-26452380D01*
X186785714Y-26404761D01*
X186738095Y-26357142D01*
X187785714Y-26452380D02*
X187976190Y-26452380D01*
X188071428Y-26404761D01*
X188119047Y-26357142D01*
X188214285Y-26214285D01*
X188261904Y-26023809D01*
X188261904Y-25642857D01*
X188214285Y-25547619D01*
X188166666Y-25500000D01*
X188071428Y-25452380D01*
X187880952Y-25452380D01*
X187785714Y-25500000D01*
X187738095Y-25547619D01*
X187690476Y-25642857D01*
X187690476Y-25880952D01*
X187738095Y-25976190D01*
X187785714Y-26023809D01*
X187880952Y-26071428D01*
X188071428Y-26071428D01*
X188166666Y-26023809D01*
X188214285Y-25976190D01*
X188261904Y-25880952D01*
%TO.C,R58*%
X178357142Y-26452380D02*
X178023809Y-25976190D01*
X177785714Y-26452380D02*
X177785714Y-25452380D01*
X178166666Y-25452380D01*
X178261904Y-25500000D01*
X178309523Y-25547619D01*
X178357142Y-25642857D01*
X178357142Y-25785714D01*
X178309523Y-25880952D01*
X178261904Y-25928571D01*
X178166666Y-25976190D01*
X177785714Y-25976190D01*
X179261904Y-25452380D02*
X178785714Y-25452380D01*
X178738095Y-25928571D01*
X178785714Y-25880952D01*
X178880952Y-25833333D01*
X179119047Y-25833333D01*
X179214285Y-25880952D01*
X179261904Y-25928571D01*
X179309523Y-26023809D01*
X179309523Y-26261904D01*
X179261904Y-26357142D01*
X179214285Y-26404761D01*
X179119047Y-26452380D01*
X178880952Y-26452380D01*
X178785714Y-26404761D01*
X178738095Y-26357142D01*
X179880952Y-25880952D02*
X179785714Y-25833333D01*
X179738095Y-25785714D01*
X179690476Y-25690476D01*
X179690476Y-25642857D01*
X179738095Y-25547619D01*
X179785714Y-25500000D01*
X179880952Y-25452380D01*
X180071428Y-25452380D01*
X180166666Y-25500000D01*
X180214285Y-25547619D01*
X180261904Y-25642857D01*
X180261904Y-25690476D01*
X180214285Y-25785714D01*
X180166666Y-25833333D01*
X180071428Y-25880952D01*
X179880952Y-25880952D01*
X179785714Y-25928571D01*
X179738095Y-25976190D01*
X179690476Y-26071428D01*
X179690476Y-26261904D01*
X179738095Y-26357142D01*
X179785714Y-26404761D01*
X179880952Y-26452380D01*
X180071428Y-26452380D01*
X180166666Y-26404761D01*
X180214285Y-26357142D01*
X180261904Y-26261904D01*
X180261904Y-26071428D01*
X180214285Y-25976190D01*
X180166666Y-25928571D01*
X180071428Y-25880952D01*
%TO.C,R57*%
X170357142Y-26452380D02*
X170023809Y-25976190D01*
X169785714Y-26452380D02*
X169785714Y-25452380D01*
X170166666Y-25452380D01*
X170261904Y-25500000D01*
X170309523Y-25547619D01*
X170357142Y-25642857D01*
X170357142Y-25785714D01*
X170309523Y-25880952D01*
X170261904Y-25928571D01*
X170166666Y-25976190D01*
X169785714Y-25976190D01*
X171261904Y-25452380D02*
X170785714Y-25452380D01*
X170738095Y-25928571D01*
X170785714Y-25880952D01*
X170880952Y-25833333D01*
X171119047Y-25833333D01*
X171214285Y-25880952D01*
X171261904Y-25928571D01*
X171309523Y-26023809D01*
X171309523Y-26261904D01*
X171261904Y-26357142D01*
X171214285Y-26404761D01*
X171119047Y-26452380D01*
X170880952Y-26452380D01*
X170785714Y-26404761D01*
X170738095Y-26357142D01*
X171642857Y-25452380D02*
X172309523Y-25452380D01*
X171880952Y-26452380D01*
%TO.C,R56*%
X162357142Y-26452380D02*
X162023809Y-25976190D01*
X161785714Y-26452380D02*
X161785714Y-25452380D01*
X162166666Y-25452380D01*
X162261904Y-25500000D01*
X162309523Y-25547619D01*
X162357142Y-25642857D01*
X162357142Y-25785714D01*
X162309523Y-25880952D01*
X162261904Y-25928571D01*
X162166666Y-25976190D01*
X161785714Y-25976190D01*
X163261904Y-25452380D02*
X162785714Y-25452380D01*
X162738095Y-25928571D01*
X162785714Y-25880952D01*
X162880952Y-25833333D01*
X163119047Y-25833333D01*
X163214285Y-25880952D01*
X163261904Y-25928571D01*
X163309523Y-26023809D01*
X163309523Y-26261904D01*
X163261904Y-26357142D01*
X163214285Y-26404761D01*
X163119047Y-26452380D01*
X162880952Y-26452380D01*
X162785714Y-26404761D01*
X162738095Y-26357142D01*
X164166666Y-25452380D02*
X163976190Y-25452380D01*
X163880952Y-25500000D01*
X163833333Y-25547619D01*
X163738095Y-25690476D01*
X163690476Y-25880952D01*
X163690476Y-26261904D01*
X163738095Y-26357142D01*
X163785714Y-26404761D01*
X163880952Y-26452380D01*
X164071428Y-26452380D01*
X164166666Y-26404761D01*
X164214285Y-26357142D01*
X164261904Y-26261904D01*
X164261904Y-26023809D01*
X164214285Y-25928571D01*
X164166666Y-25880952D01*
X164071428Y-25833333D01*
X163880952Y-25833333D01*
X163785714Y-25880952D01*
X163738095Y-25928571D01*
X163690476Y-26023809D01*
%TO.C,R55*%
X154357142Y-26452380D02*
X154023809Y-25976190D01*
X153785714Y-26452380D02*
X153785714Y-25452380D01*
X154166666Y-25452380D01*
X154261904Y-25500000D01*
X154309523Y-25547619D01*
X154357142Y-25642857D01*
X154357142Y-25785714D01*
X154309523Y-25880952D01*
X154261904Y-25928571D01*
X154166666Y-25976190D01*
X153785714Y-25976190D01*
X155261904Y-25452380D02*
X154785714Y-25452380D01*
X154738095Y-25928571D01*
X154785714Y-25880952D01*
X154880952Y-25833333D01*
X155119047Y-25833333D01*
X155214285Y-25880952D01*
X155261904Y-25928571D01*
X155309523Y-26023809D01*
X155309523Y-26261904D01*
X155261904Y-26357142D01*
X155214285Y-26404761D01*
X155119047Y-26452380D01*
X154880952Y-26452380D01*
X154785714Y-26404761D01*
X154738095Y-26357142D01*
X156214285Y-25452380D02*
X155738095Y-25452380D01*
X155690476Y-25928571D01*
X155738095Y-25880952D01*
X155833333Y-25833333D01*
X156071428Y-25833333D01*
X156166666Y-25880952D01*
X156214285Y-25928571D01*
X156261904Y-26023809D01*
X156261904Y-26261904D01*
X156214285Y-26357142D01*
X156166666Y-26404761D01*
X156071428Y-26452380D01*
X155833333Y-26452380D01*
X155738095Y-26404761D01*
X155690476Y-26357142D01*
%TO.C,R54*%
X133357142Y-58452380D02*
X133023809Y-57976190D01*
X132785714Y-58452380D02*
X132785714Y-57452380D01*
X133166666Y-57452380D01*
X133261904Y-57500000D01*
X133309523Y-57547619D01*
X133357142Y-57642857D01*
X133357142Y-57785714D01*
X133309523Y-57880952D01*
X133261904Y-57928571D01*
X133166666Y-57976190D01*
X132785714Y-57976190D01*
X134261904Y-57452380D02*
X133785714Y-57452380D01*
X133738095Y-57928571D01*
X133785714Y-57880952D01*
X133880952Y-57833333D01*
X134119047Y-57833333D01*
X134214285Y-57880952D01*
X134261904Y-57928571D01*
X134309523Y-58023809D01*
X134309523Y-58261904D01*
X134261904Y-58357142D01*
X134214285Y-58404761D01*
X134119047Y-58452380D01*
X133880952Y-58452380D01*
X133785714Y-58404761D01*
X133738095Y-58357142D01*
X135166666Y-57785714D02*
X135166666Y-58452380D01*
X134928571Y-57404761D02*
X134690476Y-58119047D01*
X135309523Y-58119047D01*
%TO.C,R53*%
X125357142Y-58452380D02*
X125023809Y-57976190D01*
X124785714Y-58452380D02*
X124785714Y-57452380D01*
X125166666Y-57452380D01*
X125261904Y-57500000D01*
X125309523Y-57547619D01*
X125357142Y-57642857D01*
X125357142Y-57785714D01*
X125309523Y-57880952D01*
X125261904Y-57928571D01*
X125166666Y-57976190D01*
X124785714Y-57976190D01*
X126261904Y-57452380D02*
X125785714Y-57452380D01*
X125738095Y-57928571D01*
X125785714Y-57880952D01*
X125880952Y-57833333D01*
X126119047Y-57833333D01*
X126214285Y-57880952D01*
X126261904Y-57928571D01*
X126309523Y-58023809D01*
X126309523Y-58261904D01*
X126261904Y-58357142D01*
X126214285Y-58404761D01*
X126119047Y-58452380D01*
X125880952Y-58452380D01*
X125785714Y-58404761D01*
X125738095Y-58357142D01*
X126642857Y-57452380D02*
X127261904Y-57452380D01*
X126928571Y-57833333D01*
X127071428Y-57833333D01*
X127166666Y-57880952D01*
X127214285Y-57928571D01*
X127261904Y-58023809D01*
X127261904Y-58261904D01*
X127214285Y-58357142D01*
X127166666Y-58404761D01*
X127071428Y-58452380D01*
X126785714Y-58452380D01*
X126690476Y-58404761D01*
X126642857Y-58357142D01*
%TO.C,R52*%
X117357142Y-58452380D02*
X117023809Y-57976190D01*
X116785714Y-58452380D02*
X116785714Y-57452380D01*
X117166666Y-57452380D01*
X117261904Y-57500000D01*
X117309523Y-57547619D01*
X117357142Y-57642857D01*
X117357142Y-57785714D01*
X117309523Y-57880952D01*
X117261904Y-57928571D01*
X117166666Y-57976190D01*
X116785714Y-57976190D01*
X118261904Y-57452380D02*
X117785714Y-57452380D01*
X117738095Y-57928571D01*
X117785714Y-57880952D01*
X117880952Y-57833333D01*
X118119047Y-57833333D01*
X118214285Y-57880952D01*
X118261904Y-57928571D01*
X118309523Y-58023809D01*
X118309523Y-58261904D01*
X118261904Y-58357142D01*
X118214285Y-58404761D01*
X118119047Y-58452380D01*
X117880952Y-58452380D01*
X117785714Y-58404761D01*
X117738095Y-58357142D01*
X118690476Y-57547619D02*
X118738095Y-57500000D01*
X118833333Y-57452380D01*
X119071428Y-57452380D01*
X119166666Y-57500000D01*
X119214285Y-57547619D01*
X119261904Y-57642857D01*
X119261904Y-57738095D01*
X119214285Y-57880952D01*
X118642857Y-58452380D01*
X119261904Y-58452380D01*
%TO.C,R51*%
X109357142Y-58452380D02*
X109023809Y-57976190D01*
X108785714Y-58452380D02*
X108785714Y-57452380D01*
X109166666Y-57452380D01*
X109261904Y-57500000D01*
X109309523Y-57547619D01*
X109357142Y-57642857D01*
X109357142Y-57785714D01*
X109309523Y-57880952D01*
X109261904Y-57928571D01*
X109166666Y-57976190D01*
X108785714Y-57976190D01*
X110261904Y-57452380D02*
X109785714Y-57452380D01*
X109738095Y-57928571D01*
X109785714Y-57880952D01*
X109880952Y-57833333D01*
X110119047Y-57833333D01*
X110214285Y-57880952D01*
X110261904Y-57928571D01*
X110309523Y-58023809D01*
X110309523Y-58261904D01*
X110261904Y-58357142D01*
X110214285Y-58404761D01*
X110119047Y-58452380D01*
X109880952Y-58452380D01*
X109785714Y-58404761D01*
X109738095Y-58357142D01*
X111261904Y-58452380D02*
X110690476Y-58452380D01*
X110976190Y-58452380D02*
X110976190Y-57452380D01*
X110880952Y-57595238D01*
X110785714Y-57690476D01*
X110690476Y-57738095D01*
%TO.C,R50*%
X101357142Y-58452380D02*
X101023809Y-57976190D01*
X100785714Y-58452380D02*
X100785714Y-57452380D01*
X101166666Y-57452380D01*
X101261904Y-57500000D01*
X101309523Y-57547619D01*
X101357142Y-57642857D01*
X101357142Y-57785714D01*
X101309523Y-57880952D01*
X101261904Y-57928571D01*
X101166666Y-57976190D01*
X100785714Y-57976190D01*
X102261904Y-57452380D02*
X101785714Y-57452380D01*
X101738095Y-57928571D01*
X101785714Y-57880952D01*
X101880952Y-57833333D01*
X102119047Y-57833333D01*
X102214285Y-57880952D01*
X102261904Y-57928571D01*
X102309523Y-58023809D01*
X102309523Y-58261904D01*
X102261904Y-58357142D01*
X102214285Y-58404761D01*
X102119047Y-58452380D01*
X101880952Y-58452380D01*
X101785714Y-58404761D01*
X101738095Y-58357142D01*
X102928571Y-57452380D02*
X103023809Y-57452380D01*
X103119047Y-57500000D01*
X103166666Y-57547619D01*
X103214285Y-57642857D01*
X103261904Y-57833333D01*
X103261904Y-58071428D01*
X103214285Y-58261904D01*
X103166666Y-58357142D01*
X103119047Y-58404761D01*
X103023809Y-58452380D01*
X102928571Y-58452380D01*
X102833333Y-58404761D01*
X102785714Y-58357142D01*
X102738095Y-58261904D01*
X102690476Y-58071428D01*
X102690476Y-57833333D01*
X102738095Y-57642857D01*
X102785714Y-57547619D01*
X102833333Y-57500000D01*
X102928571Y-57452380D01*
%TO.C,R49*%
X133357142Y-50452380D02*
X133023809Y-49976190D01*
X132785714Y-50452380D02*
X132785714Y-49452380D01*
X133166666Y-49452380D01*
X133261904Y-49500000D01*
X133309523Y-49547619D01*
X133357142Y-49642857D01*
X133357142Y-49785714D01*
X133309523Y-49880952D01*
X133261904Y-49928571D01*
X133166666Y-49976190D01*
X132785714Y-49976190D01*
X134214285Y-49785714D02*
X134214285Y-50452380D01*
X133976190Y-49404761D02*
X133738095Y-50119047D01*
X134357142Y-50119047D01*
X134785714Y-50452380D02*
X134976190Y-50452380D01*
X135071428Y-50404761D01*
X135119047Y-50357142D01*
X135214285Y-50214285D01*
X135261904Y-50023809D01*
X135261904Y-49642857D01*
X135214285Y-49547619D01*
X135166666Y-49500000D01*
X135071428Y-49452380D01*
X134880952Y-49452380D01*
X134785714Y-49500000D01*
X134738095Y-49547619D01*
X134690476Y-49642857D01*
X134690476Y-49880952D01*
X134738095Y-49976190D01*
X134785714Y-50023809D01*
X134880952Y-50071428D01*
X135071428Y-50071428D01*
X135166666Y-50023809D01*
X135214285Y-49976190D01*
X135261904Y-49880952D01*
%TO.C,R48*%
X125357142Y-50452380D02*
X125023809Y-49976190D01*
X124785714Y-50452380D02*
X124785714Y-49452380D01*
X125166666Y-49452380D01*
X125261904Y-49500000D01*
X125309523Y-49547619D01*
X125357142Y-49642857D01*
X125357142Y-49785714D01*
X125309523Y-49880952D01*
X125261904Y-49928571D01*
X125166666Y-49976190D01*
X124785714Y-49976190D01*
X126214285Y-49785714D02*
X126214285Y-50452380D01*
X125976190Y-49404761D02*
X125738095Y-50119047D01*
X126357142Y-50119047D01*
X126880952Y-49880952D02*
X126785714Y-49833333D01*
X126738095Y-49785714D01*
X126690476Y-49690476D01*
X126690476Y-49642857D01*
X126738095Y-49547619D01*
X126785714Y-49500000D01*
X126880952Y-49452380D01*
X127071428Y-49452380D01*
X127166666Y-49500000D01*
X127214285Y-49547619D01*
X127261904Y-49642857D01*
X127261904Y-49690476D01*
X127214285Y-49785714D01*
X127166666Y-49833333D01*
X127071428Y-49880952D01*
X126880952Y-49880952D01*
X126785714Y-49928571D01*
X126738095Y-49976190D01*
X126690476Y-50071428D01*
X126690476Y-50261904D01*
X126738095Y-50357142D01*
X126785714Y-50404761D01*
X126880952Y-50452380D01*
X127071428Y-50452380D01*
X127166666Y-50404761D01*
X127214285Y-50357142D01*
X127261904Y-50261904D01*
X127261904Y-50071428D01*
X127214285Y-49976190D01*
X127166666Y-49928571D01*
X127071428Y-49880952D01*
%TO.C,R47*%
X117357142Y-50452380D02*
X117023809Y-49976190D01*
X116785714Y-50452380D02*
X116785714Y-49452380D01*
X117166666Y-49452380D01*
X117261904Y-49500000D01*
X117309523Y-49547619D01*
X117357142Y-49642857D01*
X117357142Y-49785714D01*
X117309523Y-49880952D01*
X117261904Y-49928571D01*
X117166666Y-49976190D01*
X116785714Y-49976190D01*
X118214285Y-49785714D02*
X118214285Y-50452380D01*
X117976190Y-49404761D02*
X117738095Y-50119047D01*
X118357142Y-50119047D01*
X118642857Y-49452380D02*
X119309523Y-49452380D01*
X118880952Y-50452380D01*
%TO.C,R46*%
X109357142Y-50452380D02*
X109023809Y-49976190D01*
X108785714Y-50452380D02*
X108785714Y-49452380D01*
X109166666Y-49452380D01*
X109261904Y-49500000D01*
X109309523Y-49547619D01*
X109357142Y-49642857D01*
X109357142Y-49785714D01*
X109309523Y-49880952D01*
X109261904Y-49928571D01*
X109166666Y-49976190D01*
X108785714Y-49976190D01*
X110214285Y-49785714D02*
X110214285Y-50452380D01*
X109976190Y-49404761D02*
X109738095Y-50119047D01*
X110357142Y-50119047D01*
X111166666Y-49452380D02*
X110976190Y-49452380D01*
X110880952Y-49500000D01*
X110833333Y-49547619D01*
X110738095Y-49690476D01*
X110690476Y-49880952D01*
X110690476Y-50261904D01*
X110738095Y-50357142D01*
X110785714Y-50404761D01*
X110880952Y-50452380D01*
X111071428Y-50452380D01*
X111166666Y-50404761D01*
X111214285Y-50357142D01*
X111261904Y-50261904D01*
X111261904Y-50023809D01*
X111214285Y-49928571D01*
X111166666Y-49880952D01*
X111071428Y-49833333D01*
X110880952Y-49833333D01*
X110785714Y-49880952D01*
X110738095Y-49928571D01*
X110690476Y-50023809D01*
%TO.C,R45*%
X101357142Y-50452380D02*
X101023809Y-49976190D01*
X100785714Y-50452380D02*
X100785714Y-49452380D01*
X101166666Y-49452380D01*
X101261904Y-49500000D01*
X101309523Y-49547619D01*
X101357142Y-49642857D01*
X101357142Y-49785714D01*
X101309523Y-49880952D01*
X101261904Y-49928571D01*
X101166666Y-49976190D01*
X100785714Y-49976190D01*
X102214285Y-49785714D02*
X102214285Y-50452380D01*
X101976190Y-49404761D02*
X101738095Y-50119047D01*
X102357142Y-50119047D01*
X103214285Y-49452380D02*
X102738095Y-49452380D01*
X102690476Y-49928571D01*
X102738095Y-49880952D01*
X102833333Y-49833333D01*
X103071428Y-49833333D01*
X103166666Y-49880952D01*
X103214285Y-49928571D01*
X103261904Y-50023809D01*
X103261904Y-50261904D01*
X103214285Y-50357142D01*
X103166666Y-50404761D01*
X103071428Y-50452380D01*
X102833333Y-50452380D01*
X102738095Y-50404761D01*
X102690476Y-50357142D01*
%TO.C,R44*%
X133357142Y-42452380D02*
X133023809Y-41976190D01*
X132785714Y-42452380D02*
X132785714Y-41452380D01*
X133166666Y-41452380D01*
X133261904Y-41500000D01*
X133309523Y-41547619D01*
X133357142Y-41642857D01*
X133357142Y-41785714D01*
X133309523Y-41880952D01*
X133261904Y-41928571D01*
X133166666Y-41976190D01*
X132785714Y-41976190D01*
X134214285Y-41785714D02*
X134214285Y-42452380D01*
X133976190Y-41404761D02*
X133738095Y-42119047D01*
X134357142Y-42119047D01*
X135166666Y-41785714D02*
X135166666Y-42452380D01*
X134928571Y-41404761D02*
X134690476Y-42119047D01*
X135309523Y-42119047D01*
%TO.C,R43*%
X125357142Y-42452380D02*
X125023809Y-41976190D01*
X124785714Y-42452380D02*
X124785714Y-41452380D01*
X125166666Y-41452380D01*
X125261904Y-41500000D01*
X125309523Y-41547619D01*
X125357142Y-41642857D01*
X125357142Y-41785714D01*
X125309523Y-41880952D01*
X125261904Y-41928571D01*
X125166666Y-41976190D01*
X124785714Y-41976190D01*
X126214285Y-41785714D02*
X126214285Y-42452380D01*
X125976190Y-41404761D02*
X125738095Y-42119047D01*
X126357142Y-42119047D01*
X126642857Y-41452380D02*
X127261904Y-41452380D01*
X126928571Y-41833333D01*
X127071428Y-41833333D01*
X127166666Y-41880952D01*
X127214285Y-41928571D01*
X127261904Y-42023809D01*
X127261904Y-42261904D01*
X127214285Y-42357142D01*
X127166666Y-42404761D01*
X127071428Y-42452380D01*
X126785714Y-42452380D01*
X126690476Y-42404761D01*
X126642857Y-42357142D01*
%TO.C,R42*%
X117357142Y-42452380D02*
X117023809Y-41976190D01*
X116785714Y-42452380D02*
X116785714Y-41452380D01*
X117166666Y-41452380D01*
X117261904Y-41500000D01*
X117309523Y-41547619D01*
X117357142Y-41642857D01*
X117357142Y-41785714D01*
X117309523Y-41880952D01*
X117261904Y-41928571D01*
X117166666Y-41976190D01*
X116785714Y-41976190D01*
X118214285Y-41785714D02*
X118214285Y-42452380D01*
X117976190Y-41404761D02*
X117738095Y-42119047D01*
X118357142Y-42119047D01*
X118690476Y-41547619D02*
X118738095Y-41500000D01*
X118833333Y-41452380D01*
X119071428Y-41452380D01*
X119166666Y-41500000D01*
X119214285Y-41547619D01*
X119261904Y-41642857D01*
X119261904Y-41738095D01*
X119214285Y-41880952D01*
X118642857Y-42452380D01*
X119261904Y-42452380D01*
%TO.C,R41*%
X109357142Y-42452380D02*
X109023809Y-41976190D01*
X108785714Y-42452380D02*
X108785714Y-41452380D01*
X109166666Y-41452380D01*
X109261904Y-41500000D01*
X109309523Y-41547619D01*
X109357142Y-41642857D01*
X109357142Y-41785714D01*
X109309523Y-41880952D01*
X109261904Y-41928571D01*
X109166666Y-41976190D01*
X108785714Y-41976190D01*
X110214285Y-41785714D02*
X110214285Y-42452380D01*
X109976190Y-41404761D02*
X109738095Y-42119047D01*
X110357142Y-42119047D01*
X111261904Y-42452380D02*
X110690476Y-42452380D01*
X110976190Y-42452380D02*
X110976190Y-41452380D01*
X110880952Y-41595238D01*
X110785714Y-41690476D01*
X110690476Y-41738095D01*
%TO.C,R40*%
X101357142Y-42452380D02*
X101023809Y-41976190D01*
X100785714Y-42452380D02*
X100785714Y-41452380D01*
X101166666Y-41452380D01*
X101261904Y-41500000D01*
X101309523Y-41547619D01*
X101357142Y-41642857D01*
X101357142Y-41785714D01*
X101309523Y-41880952D01*
X101261904Y-41928571D01*
X101166666Y-41976190D01*
X100785714Y-41976190D01*
X102214285Y-41785714D02*
X102214285Y-42452380D01*
X101976190Y-41404761D02*
X101738095Y-42119047D01*
X102357142Y-42119047D01*
X102928571Y-41452380D02*
X103023809Y-41452380D01*
X103119047Y-41500000D01*
X103166666Y-41547619D01*
X103214285Y-41642857D01*
X103261904Y-41833333D01*
X103261904Y-42071428D01*
X103214285Y-42261904D01*
X103166666Y-42357142D01*
X103119047Y-42404761D01*
X103023809Y-42452380D01*
X102928571Y-42452380D01*
X102833333Y-42404761D01*
X102785714Y-42357142D01*
X102738095Y-42261904D01*
X102690476Y-42071428D01*
X102690476Y-41833333D01*
X102738095Y-41642857D01*
X102785714Y-41547619D01*
X102833333Y-41500000D01*
X102928571Y-41452380D01*
%TO.C,R39*%
X133357142Y-34452380D02*
X133023809Y-33976190D01*
X132785714Y-34452380D02*
X132785714Y-33452380D01*
X133166666Y-33452380D01*
X133261904Y-33500000D01*
X133309523Y-33547619D01*
X133357142Y-33642857D01*
X133357142Y-33785714D01*
X133309523Y-33880952D01*
X133261904Y-33928571D01*
X133166666Y-33976190D01*
X132785714Y-33976190D01*
X133690476Y-33452380D02*
X134309523Y-33452380D01*
X133976190Y-33833333D01*
X134119047Y-33833333D01*
X134214285Y-33880952D01*
X134261904Y-33928571D01*
X134309523Y-34023809D01*
X134309523Y-34261904D01*
X134261904Y-34357142D01*
X134214285Y-34404761D01*
X134119047Y-34452380D01*
X133833333Y-34452380D01*
X133738095Y-34404761D01*
X133690476Y-34357142D01*
X134785714Y-34452380D02*
X134976190Y-34452380D01*
X135071428Y-34404761D01*
X135119047Y-34357142D01*
X135214285Y-34214285D01*
X135261904Y-34023809D01*
X135261904Y-33642857D01*
X135214285Y-33547619D01*
X135166666Y-33500000D01*
X135071428Y-33452380D01*
X134880952Y-33452380D01*
X134785714Y-33500000D01*
X134738095Y-33547619D01*
X134690476Y-33642857D01*
X134690476Y-33880952D01*
X134738095Y-33976190D01*
X134785714Y-34023809D01*
X134880952Y-34071428D01*
X135071428Y-34071428D01*
X135166666Y-34023809D01*
X135214285Y-33976190D01*
X135261904Y-33880952D01*
%TO.C,R38*%
X125357142Y-34452380D02*
X125023809Y-33976190D01*
X124785714Y-34452380D02*
X124785714Y-33452380D01*
X125166666Y-33452380D01*
X125261904Y-33500000D01*
X125309523Y-33547619D01*
X125357142Y-33642857D01*
X125357142Y-33785714D01*
X125309523Y-33880952D01*
X125261904Y-33928571D01*
X125166666Y-33976190D01*
X124785714Y-33976190D01*
X125690476Y-33452380D02*
X126309523Y-33452380D01*
X125976190Y-33833333D01*
X126119047Y-33833333D01*
X126214285Y-33880952D01*
X126261904Y-33928571D01*
X126309523Y-34023809D01*
X126309523Y-34261904D01*
X126261904Y-34357142D01*
X126214285Y-34404761D01*
X126119047Y-34452380D01*
X125833333Y-34452380D01*
X125738095Y-34404761D01*
X125690476Y-34357142D01*
X126880952Y-33880952D02*
X126785714Y-33833333D01*
X126738095Y-33785714D01*
X126690476Y-33690476D01*
X126690476Y-33642857D01*
X126738095Y-33547619D01*
X126785714Y-33500000D01*
X126880952Y-33452380D01*
X127071428Y-33452380D01*
X127166666Y-33500000D01*
X127214285Y-33547619D01*
X127261904Y-33642857D01*
X127261904Y-33690476D01*
X127214285Y-33785714D01*
X127166666Y-33833333D01*
X127071428Y-33880952D01*
X126880952Y-33880952D01*
X126785714Y-33928571D01*
X126738095Y-33976190D01*
X126690476Y-34071428D01*
X126690476Y-34261904D01*
X126738095Y-34357142D01*
X126785714Y-34404761D01*
X126880952Y-34452380D01*
X127071428Y-34452380D01*
X127166666Y-34404761D01*
X127214285Y-34357142D01*
X127261904Y-34261904D01*
X127261904Y-34071428D01*
X127214285Y-33976190D01*
X127166666Y-33928571D01*
X127071428Y-33880952D01*
%TO.C,R37*%
X117357142Y-34452380D02*
X117023809Y-33976190D01*
X116785714Y-34452380D02*
X116785714Y-33452380D01*
X117166666Y-33452380D01*
X117261904Y-33500000D01*
X117309523Y-33547619D01*
X117357142Y-33642857D01*
X117357142Y-33785714D01*
X117309523Y-33880952D01*
X117261904Y-33928571D01*
X117166666Y-33976190D01*
X116785714Y-33976190D01*
X117690476Y-33452380D02*
X118309523Y-33452380D01*
X117976190Y-33833333D01*
X118119047Y-33833333D01*
X118214285Y-33880952D01*
X118261904Y-33928571D01*
X118309523Y-34023809D01*
X118309523Y-34261904D01*
X118261904Y-34357142D01*
X118214285Y-34404761D01*
X118119047Y-34452380D01*
X117833333Y-34452380D01*
X117738095Y-34404761D01*
X117690476Y-34357142D01*
X118642857Y-33452380D02*
X119309523Y-33452380D01*
X118880952Y-34452380D01*
%TO.C,R36*%
X109357142Y-34452380D02*
X109023809Y-33976190D01*
X108785714Y-34452380D02*
X108785714Y-33452380D01*
X109166666Y-33452380D01*
X109261904Y-33500000D01*
X109309523Y-33547619D01*
X109357142Y-33642857D01*
X109357142Y-33785714D01*
X109309523Y-33880952D01*
X109261904Y-33928571D01*
X109166666Y-33976190D01*
X108785714Y-33976190D01*
X109690476Y-33452380D02*
X110309523Y-33452380D01*
X109976190Y-33833333D01*
X110119047Y-33833333D01*
X110214285Y-33880952D01*
X110261904Y-33928571D01*
X110309523Y-34023809D01*
X110309523Y-34261904D01*
X110261904Y-34357142D01*
X110214285Y-34404761D01*
X110119047Y-34452380D01*
X109833333Y-34452380D01*
X109738095Y-34404761D01*
X109690476Y-34357142D01*
X111166666Y-33452380D02*
X110976190Y-33452380D01*
X110880952Y-33500000D01*
X110833333Y-33547619D01*
X110738095Y-33690476D01*
X110690476Y-33880952D01*
X110690476Y-34261904D01*
X110738095Y-34357142D01*
X110785714Y-34404761D01*
X110880952Y-34452380D01*
X111071428Y-34452380D01*
X111166666Y-34404761D01*
X111214285Y-34357142D01*
X111261904Y-34261904D01*
X111261904Y-34023809D01*
X111214285Y-33928571D01*
X111166666Y-33880952D01*
X111071428Y-33833333D01*
X110880952Y-33833333D01*
X110785714Y-33880952D01*
X110738095Y-33928571D01*
X110690476Y-34023809D01*
%TO.C,R35*%
X101357142Y-34452380D02*
X101023809Y-33976190D01*
X100785714Y-34452380D02*
X100785714Y-33452380D01*
X101166666Y-33452380D01*
X101261904Y-33500000D01*
X101309523Y-33547619D01*
X101357142Y-33642857D01*
X101357142Y-33785714D01*
X101309523Y-33880952D01*
X101261904Y-33928571D01*
X101166666Y-33976190D01*
X100785714Y-33976190D01*
X101690476Y-33452380D02*
X102309523Y-33452380D01*
X101976190Y-33833333D01*
X102119047Y-33833333D01*
X102214285Y-33880952D01*
X102261904Y-33928571D01*
X102309523Y-34023809D01*
X102309523Y-34261904D01*
X102261904Y-34357142D01*
X102214285Y-34404761D01*
X102119047Y-34452380D01*
X101833333Y-34452380D01*
X101738095Y-34404761D01*
X101690476Y-34357142D01*
X103214285Y-33452380D02*
X102738095Y-33452380D01*
X102690476Y-33928571D01*
X102738095Y-33880952D01*
X102833333Y-33833333D01*
X103071428Y-33833333D01*
X103166666Y-33880952D01*
X103214285Y-33928571D01*
X103261904Y-34023809D01*
X103261904Y-34261904D01*
X103214285Y-34357142D01*
X103166666Y-34404761D01*
X103071428Y-34452380D01*
X102833333Y-34452380D01*
X102738095Y-34404761D01*
X102690476Y-34357142D01*
%TO.C,R34*%
X133357142Y-26452380D02*
X133023809Y-25976190D01*
X132785714Y-26452380D02*
X132785714Y-25452380D01*
X133166666Y-25452380D01*
X133261904Y-25500000D01*
X133309523Y-25547619D01*
X133357142Y-25642857D01*
X133357142Y-25785714D01*
X133309523Y-25880952D01*
X133261904Y-25928571D01*
X133166666Y-25976190D01*
X132785714Y-25976190D01*
X133690476Y-25452380D02*
X134309523Y-25452380D01*
X133976190Y-25833333D01*
X134119047Y-25833333D01*
X134214285Y-25880952D01*
X134261904Y-25928571D01*
X134309523Y-26023809D01*
X134309523Y-26261904D01*
X134261904Y-26357142D01*
X134214285Y-26404761D01*
X134119047Y-26452380D01*
X133833333Y-26452380D01*
X133738095Y-26404761D01*
X133690476Y-26357142D01*
X135166666Y-25785714D02*
X135166666Y-26452380D01*
X134928571Y-25404761D02*
X134690476Y-26119047D01*
X135309523Y-26119047D01*
%TO.C,R33*%
X125357142Y-26452380D02*
X125023809Y-25976190D01*
X124785714Y-26452380D02*
X124785714Y-25452380D01*
X125166666Y-25452380D01*
X125261904Y-25500000D01*
X125309523Y-25547619D01*
X125357142Y-25642857D01*
X125357142Y-25785714D01*
X125309523Y-25880952D01*
X125261904Y-25928571D01*
X125166666Y-25976190D01*
X124785714Y-25976190D01*
X125690476Y-25452380D02*
X126309523Y-25452380D01*
X125976190Y-25833333D01*
X126119047Y-25833333D01*
X126214285Y-25880952D01*
X126261904Y-25928571D01*
X126309523Y-26023809D01*
X126309523Y-26261904D01*
X126261904Y-26357142D01*
X126214285Y-26404761D01*
X126119047Y-26452380D01*
X125833333Y-26452380D01*
X125738095Y-26404761D01*
X125690476Y-26357142D01*
X126642857Y-25452380D02*
X127261904Y-25452380D01*
X126928571Y-25833333D01*
X127071428Y-25833333D01*
X127166666Y-25880952D01*
X127214285Y-25928571D01*
X127261904Y-26023809D01*
X127261904Y-26261904D01*
X127214285Y-26357142D01*
X127166666Y-26404761D01*
X127071428Y-26452380D01*
X126785714Y-26452380D01*
X126690476Y-26404761D01*
X126642857Y-26357142D01*
%TO.C,R32*%
X117357142Y-26452380D02*
X117023809Y-25976190D01*
X116785714Y-26452380D02*
X116785714Y-25452380D01*
X117166666Y-25452380D01*
X117261904Y-25500000D01*
X117309523Y-25547619D01*
X117357142Y-25642857D01*
X117357142Y-25785714D01*
X117309523Y-25880952D01*
X117261904Y-25928571D01*
X117166666Y-25976190D01*
X116785714Y-25976190D01*
X117690476Y-25452380D02*
X118309523Y-25452380D01*
X117976190Y-25833333D01*
X118119047Y-25833333D01*
X118214285Y-25880952D01*
X118261904Y-25928571D01*
X118309523Y-26023809D01*
X118309523Y-26261904D01*
X118261904Y-26357142D01*
X118214285Y-26404761D01*
X118119047Y-26452380D01*
X117833333Y-26452380D01*
X117738095Y-26404761D01*
X117690476Y-26357142D01*
X118690476Y-25547619D02*
X118738095Y-25500000D01*
X118833333Y-25452380D01*
X119071428Y-25452380D01*
X119166666Y-25500000D01*
X119214285Y-25547619D01*
X119261904Y-25642857D01*
X119261904Y-25738095D01*
X119214285Y-25880952D01*
X118642857Y-26452380D01*
X119261904Y-26452380D01*
%TO.C,R31*%
X109357142Y-26452380D02*
X109023809Y-25976190D01*
X108785714Y-26452380D02*
X108785714Y-25452380D01*
X109166666Y-25452380D01*
X109261904Y-25500000D01*
X109309523Y-25547619D01*
X109357142Y-25642857D01*
X109357142Y-25785714D01*
X109309523Y-25880952D01*
X109261904Y-25928571D01*
X109166666Y-25976190D01*
X108785714Y-25976190D01*
X109690476Y-25452380D02*
X110309523Y-25452380D01*
X109976190Y-25833333D01*
X110119047Y-25833333D01*
X110214285Y-25880952D01*
X110261904Y-25928571D01*
X110309523Y-26023809D01*
X110309523Y-26261904D01*
X110261904Y-26357142D01*
X110214285Y-26404761D01*
X110119047Y-26452380D01*
X109833333Y-26452380D01*
X109738095Y-26404761D01*
X109690476Y-26357142D01*
X111261904Y-26452380D02*
X110690476Y-26452380D01*
X110976190Y-26452380D02*
X110976190Y-25452380D01*
X110880952Y-25595238D01*
X110785714Y-25690476D01*
X110690476Y-25738095D01*
%TO.C,R30*%
X101357142Y-26452380D02*
X101023809Y-25976190D01*
X100785714Y-26452380D02*
X100785714Y-25452380D01*
X101166666Y-25452380D01*
X101261904Y-25500000D01*
X101309523Y-25547619D01*
X101357142Y-25642857D01*
X101357142Y-25785714D01*
X101309523Y-25880952D01*
X101261904Y-25928571D01*
X101166666Y-25976190D01*
X100785714Y-25976190D01*
X101690476Y-25452380D02*
X102309523Y-25452380D01*
X101976190Y-25833333D01*
X102119047Y-25833333D01*
X102214285Y-25880952D01*
X102261904Y-25928571D01*
X102309523Y-26023809D01*
X102309523Y-26261904D01*
X102261904Y-26357142D01*
X102214285Y-26404761D01*
X102119047Y-26452380D01*
X101833333Y-26452380D01*
X101738095Y-26404761D01*
X101690476Y-26357142D01*
X102928571Y-25452380D02*
X103023809Y-25452380D01*
X103119047Y-25500000D01*
X103166666Y-25547619D01*
X103214285Y-25642857D01*
X103261904Y-25833333D01*
X103261904Y-26071428D01*
X103214285Y-26261904D01*
X103166666Y-26357142D01*
X103119047Y-26404761D01*
X103023809Y-26452380D01*
X102928571Y-26452380D01*
X102833333Y-26404761D01*
X102785714Y-26357142D01*
X102738095Y-26261904D01*
X102690476Y-26071428D01*
X102690476Y-25833333D01*
X102738095Y-25642857D01*
X102785714Y-25547619D01*
X102833333Y-25500000D01*
X102928571Y-25452380D01*
%TO.C,R29*%
X79857142Y-50452380D02*
X79523809Y-49976190D01*
X79285714Y-50452380D02*
X79285714Y-49452380D01*
X79666666Y-49452380D01*
X79761904Y-49500000D01*
X79809523Y-49547619D01*
X79857142Y-49642857D01*
X79857142Y-49785714D01*
X79809523Y-49880952D01*
X79761904Y-49928571D01*
X79666666Y-49976190D01*
X79285714Y-49976190D01*
X80238095Y-49547619D02*
X80285714Y-49500000D01*
X80380952Y-49452380D01*
X80619047Y-49452380D01*
X80714285Y-49500000D01*
X80761904Y-49547619D01*
X80809523Y-49642857D01*
X80809523Y-49738095D01*
X80761904Y-49880952D01*
X80190476Y-50452380D01*
X80809523Y-50452380D01*
X81285714Y-50452380D02*
X81476190Y-50452380D01*
X81571428Y-50404761D01*
X81619047Y-50357142D01*
X81714285Y-50214285D01*
X81761904Y-50023809D01*
X81761904Y-49642857D01*
X81714285Y-49547619D01*
X81666666Y-49500000D01*
X81571428Y-49452380D01*
X81380952Y-49452380D01*
X81285714Y-49500000D01*
X81238095Y-49547619D01*
X81190476Y-49642857D01*
X81190476Y-49880952D01*
X81238095Y-49976190D01*
X81285714Y-50023809D01*
X81380952Y-50071428D01*
X81571428Y-50071428D01*
X81666666Y-50023809D01*
X81714285Y-49976190D01*
X81761904Y-49880952D01*
%TO.C,R28*%
X71857142Y-50452380D02*
X71523809Y-49976190D01*
X71285714Y-50452380D02*
X71285714Y-49452380D01*
X71666666Y-49452380D01*
X71761904Y-49500000D01*
X71809523Y-49547619D01*
X71857142Y-49642857D01*
X71857142Y-49785714D01*
X71809523Y-49880952D01*
X71761904Y-49928571D01*
X71666666Y-49976190D01*
X71285714Y-49976190D01*
X72238095Y-49547619D02*
X72285714Y-49500000D01*
X72380952Y-49452380D01*
X72619047Y-49452380D01*
X72714285Y-49500000D01*
X72761904Y-49547619D01*
X72809523Y-49642857D01*
X72809523Y-49738095D01*
X72761904Y-49880952D01*
X72190476Y-50452380D01*
X72809523Y-50452380D01*
X73380952Y-49880952D02*
X73285714Y-49833333D01*
X73238095Y-49785714D01*
X73190476Y-49690476D01*
X73190476Y-49642857D01*
X73238095Y-49547619D01*
X73285714Y-49500000D01*
X73380952Y-49452380D01*
X73571428Y-49452380D01*
X73666666Y-49500000D01*
X73714285Y-49547619D01*
X73761904Y-49642857D01*
X73761904Y-49690476D01*
X73714285Y-49785714D01*
X73666666Y-49833333D01*
X73571428Y-49880952D01*
X73380952Y-49880952D01*
X73285714Y-49928571D01*
X73238095Y-49976190D01*
X73190476Y-50071428D01*
X73190476Y-50261904D01*
X73238095Y-50357142D01*
X73285714Y-50404761D01*
X73380952Y-50452380D01*
X73571428Y-50452380D01*
X73666666Y-50404761D01*
X73714285Y-50357142D01*
X73761904Y-50261904D01*
X73761904Y-50071428D01*
X73714285Y-49976190D01*
X73666666Y-49928571D01*
X73571428Y-49880952D01*
%TO.C,R27*%
X63857142Y-50452380D02*
X63523809Y-49976190D01*
X63285714Y-50452380D02*
X63285714Y-49452380D01*
X63666666Y-49452380D01*
X63761904Y-49500000D01*
X63809523Y-49547619D01*
X63857142Y-49642857D01*
X63857142Y-49785714D01*
X63809523Y-49880952D01*
X63761904Y-49928571D01*
X63666666Y-49976190D01*
X63285714Y-49976190D01*
X64238095Y-49547619D02*
X64285714Y-49500000D01*
X64380952Y-49452380D01*
X64619047Y-49452380D01*
X64714285Y-49500000D01*
X64761904Y-49547619D01*
X64809523Y-49642857D01*
X64809523Y-49738095D01*
X64761904Y-49880952D01*
X64190476Y-50452380D01*
X64809523Y-50452380D01*
X65142857Y-49452380D02*
X65809523Y-49452380D01*
X65380952Y-50452380D01*
%TO.C,R26*%
X55857142Y-50452380D02*
X55523809Y-49976190D01*
X55285714Y-50452380D02*
X55285714Y-49452380D01*
X55666666Y-49452380D01*
X55761904Y-49500000D01*
X55809523Y-49547619D01*
X55857142Y-49642857D01*
X55857142Y-49785714D01*
X55809523Y-49880952D01*
X55761904Y-49928571D01*
X55666666Y-49976190D01*
X55285714Y-49976190D01*
X56238095Y-49547619D02*
X56285714Y-49500000D01*
X56380952Y-49452380D01*
X56619047Y-49452380D01*
X56714285Y-49500000D01*
X56761904Y-49547619D01*
X56809523Y-49642857D01*
X56809523Y-49738095D01*
X56761904Y-49880952D01*
X56190476Y-50452380D01*
X56809523Y-50452380D01*
X57666666Y-49452380D02*
X57476190Y-49452380D01*
X57380952Y-49500000D01*
X57333333Y-49547619D01*
X57238095Y-49690476D01*
X57190476Y-49880952D01*
X57190476Y-50261904D01*
X57238095Y-50357142D01*
X57285714Y-50404761D01*
X57380952Y-50452380D01*
X57571428Y-50452380D01*
X57666666Y-50404761D01*
X57714285Y-50357142D01*
X57761904Y-50261904D01*
X57761904Y-50023809D01*
X57714285Y-49928571D01*
X57666666Y-49880952D01*
X57571428Y-49833333D01*
X57380952Y-49833333D01*
X57285714Y-49880952D01*
X57238095Y-49928571D01*
X57190476Y-50023809D01*
%TO.C,R25*%
X79857142Y-42452380D02*
X79523809Y-41976190D01*
X79285714Y-42452380D02*
X79285714Y-41452380D01*
X79666666Y-41452380D01*
X79761904Y-41500000D01*
X79809523Y-41547619D01*
X79857142Y-41642857D01*
X79857142Y-41785714D01*
X79809523Y-41880952D01*
X79761904Y-41928571D01*
X79666666Y-41976190D01*
X79285714Y-41976190D01*
X80238095Y-41547619D02*
X80285714Y-41500000D01*
X80380952Y-41452380D01*
X80619047Y-41452380D01*
X80714285Y-41500000D01*
X80761904Y-41547619D01*
X80809523Y-41642857D01*
X80809523Y-41738095D01*
X80761904Y-41880952D01*
X80190476Y-42452380D01*
X80809523Y-42452380D01*
X81714285Y-41452380D02*
X81238095Y-41452380D01*
X81190476Y-41928571D01*
X81238095Y-41880952D01*
X81333333Y-41833333D01*
X81571428Y-41833333D01*
X81666666Y-41880952D01*
X81714285Y-41928571D01*
X81761904Y-42023809D01*
X81761904Y-42261904D01*
X81714285Y-42357142D01*
X81666666Y-42404761D01*
X81571428Y-42452380D01*
X81333333Y-42452380D01*
X81238095Y-42404761D01*
X81190476Y-42357142D01*
%TO.C,R24*%
X71857142Y-42452380D02*
X71523809Y-41976190D01*
X71285714Y-42452380D02*
X71285714Y-41452380D01*
X71666666Y-41452380D01*
X71761904Y-41500000D01*
X71809523Y-41547619D01*
X71857142Y-41642857D01*
X71857142Y-41785714D01*
X71809523Y-41880952D01*
X71761904Y-41928571D01*
X71666666Y-41976190D01*
X71285714Y-41976190D01*
X72238095Y-41547619D02*
X72285714Y-41500000D01*
X72380952Y-41452380D01*
X72619047Y-41452380D01*
X72714285Y-41500000D01*
X72761904Y-41547619D01*
X72809523Y-41642857D01*
X72809523Y-41738095D01*
X72761904Y-41880952D01*
X72190476Y-42452380D01*
X72809523Y-42452380D01*
X73666666Y-41785714D02*
X73666666Y-42452380D01*
X73428571Y-41404761D02*
X73190476Y-42119047D01*
X73809523Y-42119047D01*
%TO.C,R23*%
X63857142Y-42452380D02*
X63523809Y-41976190D01*
X63285714Y-42452380D02*
X63285714Y-41452380D01*
X63666666Y-41452380D01*
X63761904Y-41500000D01*
X63809523Y-41547619D01*
X63857142Y-41642857D01*
X63857142Y-41785714D01*
X63809523Y-41880952D01*
X63761904Y-41928571D01*
X63666666Y-41976190D01*
X63285714Y-41976190D01*
X64238095Y-41547619D02*
X64285714Y-41500000D01*
X64380952Y-41452380D01*
X64619047Y-41452380D01*
X64714285Y-41500000D01*
X64761904Y-41547619D01*
X64809523Y-41642857D01*
X64809523Y-41738095D01*
X64761904Y-41880952D01*
X64190476Y-42452380D01*
X64809523Y-42452380D01*
X65142857Y-41452380D02*
X65761904Y-41452380D01*
X65428571Y-41833333D01*
X65571428Y-41833333D01*
X65666666Y-41880952D01*
X65714285Y-41928571D01*
X65761904Y-42023809D01*
X65761904Y-42261904D01*
X65714285Y-42357142D01*
X65666666Y-42404761D01*
X65571428Y-42452380D01*
X65285714Y-42452380D01*
X65190476Y-42404761D01*
X65142857Y-42357142D01*
%TO.C,R22*%
X55857142Y-42452380D02*
X55523809Y-41976190D01*
X55285714Y-42452380D02*
X55285714Y-41452380D01*
X55666666Y-41452380D01*
X55761904Y-41500000D01*
X55809523Y-41547619D01*
X55857142Y-41642857D01*
X55857142Y-41785714D01*
X55809523Y-41880952D01*
X55761904Y-41928571D01*
X55666666Y-41976190D01*
X55285714Y-41976190D01*
X56238095Y-41547619D02*
X56285714Y-41500000D01*
X56380952Y-41452380D01*
X56619047Y-41452380D01*
X56714285Y-41500000D01*
X56761904Y-41547619D01*
X56809523Y-41642857D01*
X56809523Y-41738095D01*
X56761904Y-41880952D01*
X56190476Y-42452380D01*
X56809523Y-42452380D01*
X57190476Y-41547619D02*
X57238095Y-41500000D01*
X57333333Y-41452380D01*
X57571428Y-41452380D01*
X57666666Y-41500000D01*
X57714285Y-41547619D01*
X57761904Y-41642857D01*
X57761904Y-41738095D01*
X57714285Y-41880952D01*
X57142857Y-42452380D01*
X57761904Y-42452380D01*
%TO.C,R21*%
X79857142Y-34452380D02*
X79523809Y-33976190D01*
X79285714Y-34452380D02*
X79285714Y-33452380D01*
X79666666Y-33452380D01*
X79761904Y-33500000D01*
X79809523Y-33547619D01*
X79857142Y-33642857D01*
X79857142Y-33785714D01*
X79809523Y-33880952D01*
X79761904Y-33928571D01*
X79666666Y-33976190D01*
X79285714Y-33976190D01*
X80238095Y-33547619D02*
X80285714Y-33500000D01*
X80380952Y-33452380D01*
X80619047Y-33452380D01*
X80714285Y-33500000D01*
X80761904Y-33547619D01*
X80809523Y-33642857D01*
X80809523Y-33738095D01*
X80761904Y-33880952D01*
X80190476Y-34452380D01*
X80809523Y-34452380D01*
X81761904Y-34452380D02*
X81190476Y-34452380D01*
X81476190Y-34452380D02*
X81476190Y-33452380D01*
X81380952Y-33595238D01*
X81285714Y-33690476D01*
X81190476Y-33738095D01*
%TO.C,R20*%
X71857142Y-34452380D02*
X71523809Y-33976190D01*
X71285714Y-34452380D02*
X71285714Y-33452380D01*
X71666666Y-33452380D01*
X71761904Y-33500000D01*
X71809523Y-33547619D01*
X71857142Y-33642857D01*
X71857142Y-33785714D01*
X71809523Y-33880952D01*
X71761904Y-33928571D01*
X71666666Y-33976190D01*
X71285714Y-33976190D01*
X72238095Y-33547619D02*
X72285714Y-33500000D01*
X72380952Y-33452380D01*
X72619047Y-33452380D01*
X72714285Y-33500000D01*
X72761904Y-33547619D01*
X72809523Y-33642857D01*
X72809523Y-33738095D01*
X72761904Y-33880952D01*
X72190476Y-34452380D01*
X72809523Y-34452380D01*
X73428571Y-33452380D02*
X73523809Y-33452380D01*
X73619047Y-33500000D01*
X73666666Y-33547619D01*
X73714285Y-33642857D01*
X73761904Y-33833333D01*
X73761904Y-34071428D01*
X73714285Y-34261904D01*
X73666666Y-34357142D01*
X73619047Y-34404761D01*
X73523809Y-34452380D01*
X73428571Y-34452380D01*
X73333333Y-34404761D01*
X73285714Y-34357142D01*
X73238095Y-34261904D01*
X73190476Y-34071428D01*
X73190476Y-33833333D01*
X73238095Y-33642857D01*
X73285714Y-33547619D01*
X73333333Y-33500000D01*
X73428571Y-33452380D01*
%TO.C,R19*%
X63857142Y-34452380D02*
X63523809Y-33976190D01*
X63285714Y-34452380D02*
X63285714Y-33452380D01*
X63666666Y-33452380D01*
X63761904Y-33500000D01*
X63809523Y-33547619D01*
X63857142Y-33642857D01*
X63857142Y-33785714D01*
X63809523Y-33880952D01*
X63761904Y-33928571D01*
X63666666Y-33976190D01*
X63285714Y-33976190D01*
X64809523Y-34452380D02*
X64238095Y-34452380D01*
X64523809Y-34452380D02*
X64523809Y-33452380D01*
X64428571Y-33595238D01*
X64333333Y-33690476D01*
X64238095Y-33738095D01*
X65285714Y-34452380D02*
X65476190Y-34452380D01*
X65571428Y-34404761D01*
X65619047Y-34357142D01*
X65714285Y-34214285D01*
X65761904Y-34023809D01*
X65761904Y-33642857D01*
X65714285Y-33547619D01*
X65666666Y-33500000D01*
X65571428Y-33452380D01*
X65380952Y-33452380D01*
X65285714Y-33500000D01*
X65238095Y-33547619D01*
X65190476Y-33642857D01*
X65190476Y-33880952D01*
X65238095Y-33976190D01*
X65285714Y-34023809D01*
X65380952Y-34071428D01*
X65571428Y-34071428D01*
X65666666Y-34023809D01*
X65714285Y-33976190D01*
X65761904Y-33880952D01*
%TO.C,R18*%
X55857142Y-34452380D02*
X55523809Y-33976190D01*
X55285714Y-34452380D02*
X55285714Y-33452380D01*
X55666666Y-33452380D01*
X55761904Y-33500000D01*
X55809523Y-33547619D01*
X55857142Y-33642857D01*
X55857142Y-33785714D01*
X55809523Y-33880952D01*
X55761904Y-33928571D01*
X55666666Y-33976190D01*
X55285714Y-33976190D01*
X56809523Y-34452380D02*
X56238095Y-34452380D01*
X56523809Y-34452380D02*
X56523809Y-33452380D01*
X56428571Y-33595238D01*
X56333333Y-33690476D01*
X56238095Y-33738095D01*
X57380952Y-33880952D02*
X57285714Y-33833333D01*
X57238095Y-33785714D01*
X57190476Y-33690476D01*
X57190476Y-33642857D01*
X57238095Y-33547619D01*
X57285714Y-33500000D01*
X57380952Y-33452380D01*
X57571428Y-33452380D01*
X57666666Y-33500000D01*
X57714285Y-33547619D01*
X57761904Y-33642857D01*
X57761904Y-33690476D01*
X57714285Y-33785714D01*
X57666666Y-33833333D01*
X57571428Y-33880952D01*
X57380952Y-33880952D01*
X57285714Y-33928571D01*
X57238095Y-33976190D01*
X57190476Y-34071428D01*
X57190476Y-34261904D01*
X57238095Y-34357142D01*
X57285714Y-34404761D01*
X57380952Y-34452380D01*
X57571428Y-34452380D01*
X57666666Y-34404761D01*
X57714285Y-34357142D01*
X57761904Y-34261904D01*
X57761904Y-34071428D01*
X57714285Y-33976190D01*
X57666666Y-33928571D01*
X57571428Y-33880952D01*
%TO.C,R17*%
X79857142Y-26452380D02*
X79523809Y-25976190D01*
X79285714Y-26452380D02*
X79285714Y-25452380D01*
X79666666Y-25452380D01*
X79761904Y-25500000D01*
X79809523Y-25547619D01*
X79857142Y-25642857D01*
X79857142Y-25785714D01*
X79809523Y-25880952D01*
X79761904Y-25928571D01*
X79666666Y-25976190D01*
X79285714Y-25976190D01*
X80809523Y-26452380D02*
X80238095Y-26452380D01*
X80523809Y-26452380D02*
X80523809Y-25452380D01*
X80428571Y-25595238D01*
X80333333Y-25690476D01*
X80238095Y-25738095D01*
X81142857Y-25452380D02*
X81809523Y-25452380D01*
X81380952Y-26452380D01*
%TO.C,R16*%
X71857142Y-26452380D02*
X71523809Y-25976190D01*
X71285714Y-26452380D02*
X71285714Y-25452380D01*
X71666666Y-25452380D01*
X71761904Y-25500000D01*
X71809523Y-25547619D01*
X71857142Y-25642857D01*
X71857142Y-25785714D01*
X71809523Y-25880952D01*
X71761904Y-25928571D01*
X71666666Y-25976190D01*
X71285714Y-25976190D01*
X72809523Y-26452380D02*
X72238095Y-26452380D01*
X72523809Y-26452380D02*
X72523809Y-25452380D01*
X72428571Y-25595238D01*
X72333333Y-25690476D01*
X72238095Y-25738095D01*
X73666666Y-25452380D02*
X73476190Y-25452380D01*
X73380952Y-25500000D01*
X73333333Y-25547619D01*
X73238095Y-25690476D01*
X73190476Y-25880952D01*
X73190476Y-26261904D01*
X73238095Y-26357142D01*
X73285714Y-26404761D01*
X73380952Y-26452380D01*
X73571428Y-26452380D01*
X73666666Y-26404761D01*
X73714285Y-26357142D01*
X73761904Y-26261904D01*
X73761904Y-26023809D01*
X73714285Y-25928571D01*
X73666666Y-25880952D01*
X73571428Y-25833333D01*
X73380952Y-25833333D01*
X73285714Y-25880952D01*
X73238095Y-25928571D01*
X73190476Y-26023809D01*
%TO.C,R15*%
X63857142Y-26452380D02*
X63523809Y-25976190D01*
X63285714Y-26452380D02*
X63285714Y-25452380D01*
X63666666Y-25452380D01*
X63761904Y-25500000D01*
X63809523Y-25547619D01*
X63857142Y-25642857D01*
X63857142Y-25785714D01*
X63809523Y-25880952D01*
X63761904Y-25928571D01*
X63666666Y-25976190D01*
X63285714Y-25976190D01*
X64809523Y-26452380D02*
X64238095Y-26452380D01*
X64523809Y-26452380D02*
X64523809Y-25452380D01*
X64428571Y-25595238D01*
X64333333Y-25690476D01*
X64238095Y-25738095D01*
X65714285Y-25452380D02*
X65238095Y-25452380D01*
X65190476Y-25928571D01*
X65238095Y-25880952D01*
X65333333Y-25833333D01*
X65571428Y-25833333D01*
X65666666Y-25880952D01*
X65714285Y-25928571D01*
X65761904Y-26023809D01*
X65761904Y-26261904D01*
X65714285Y-26357142D01*
X65666666Y-26404761D01*
X65571428Y-26452380D01*
X65333333Y-26452380D01*
X65238095Y-26404761D01*
X65190476Y-26357142D01*
%TO.C,R14*%
X55857142Y-26452380D02*
X55523809Y-25976190D01*
X55285714Y-26452380D02*
X55285714Y-25452380D01*
X55666666Y-25452380D01*
X55761904Y-25500000D01*
X55809523Y-25547619D01*
X55857142Y-25642857D01*
X55857142Y-25785714D01*
X55809523Y-25880952D01*
X55761904Y-25928571D01*
X55666666Y-25976190D01*
X55285714Y-25976190D01*
X56809523Y-26452380D02*
X56238095Y-26452380D01*
X56523809Y-26452380D02*
X56523809Y-25452380D01*
X56428571Y-25595238D01*
X56333333Y-25690476D01*
X56238095Y-25738095D01*
X57666666Y-25785714D02*
X57666666Y-26452380D01*
X57428571Y-25404761D02*
X57190476Y-26119047D01*
X57809523Y-26119047D01*
D11*
%TO.C,J8*%
X142670000Y-58870000D02*
X144000000Y-58870000D01*
X142670000Y-61470000D02*
X145330000Y-61470000D01*
X142670000Y-61530000D02*
X145330000Y-61530000D01*
X145330000Y-61470000D02*
X145330000Y-61530000D01*
X142670000Y-61470000D02*
X142670000Y-61530000D01*
X142670000Y-60200000D02*
X142670000Y-58870000D01*
%TO.C,J10*%
X202470000Y-67600000D02*
X202470000Y-66270000D01*
X202470000Y-68870000D02*
X202470000Y-68930000D01*
X205130000Y-68870000D02*
X205130000Y-68930000D01*
X202470000Y-68930000D02*
X205130000Y-68930000D01*
X202470000Y-68870000D02*
X205130000Y-68870000D01*
X202470000Y-66270000D02*
X203800000Y-66270000D01*
%TO.C,J9*%
X209730000Y-25695000D02*
X209730000Y-23095000D01*
X207130000Y-25695000D02*
X207130000Y-68935000D01*
X207130000Y-24425000D02*
X207130000Y-23095000D01*
X207130000Y-25695000D02*
X209730000Y-25695000D01*
X207130000Y-23095000D02*
X208460000Y-23095000D01*
X207130000Y-68935000D02*
X212330000Y-68935000D01*
X212330000Y-23095000D02*
X212330000Y-68935000D01*
X209730000Y-23095000D02*
X212330000Y-23095000D01*
%TO.C,J7*%
X142730000Y-27270000D02*
X142730000Y-24670000D01*
X140130000Y-24670000D02*
X141460000Y-24670000D01*
X145330000Y-24670000D02*
X145330000Y-57810000D01*
X140130000Y-27270000D02*
X140130000Y-57810000D01*
X140130000Y-27270000D02*
X142730000Y-27270000D01*
X140130000Y-26000000D02*
X140130000Y-24670000D01*
X140130000Y-57810000D02*
X145330000Y-57810000D01*
X142730000Y-24670000D02*
X145330000Y-24670000D01*
%TO.C,J6*%
X89670000Y-49370000D02*
X91000000Y-49370000D01*
X89670000Y-51970000D02*
X92330000Y-51970000D01*
X89670000Y-52030000D02*
X92330000Y-52030000D01*
X92330000Y-51970000D02*
X92330000Y-52030000D01*
X89670000Y-51970000D02*
X89670000Y-52030000D01*
X89670000Y-50700000D02*
X89670000Y-49370000D01*
%TO.C,J5*%
X89770000Y-30270000D02*
X89770000Y-27670000D01*
X87170000Y-30270000D02*
X87170000Y-48110000D01*
X92370000Y-27670000D02*
X92370000Y-48110000D01*
X87170000Y-30270000D02*
X89770000Y-30270000D01*
X87170000Y-48110000D02*
X92370000Y-48110000D01*
X89770000Y-27670000D02*
X92370000Y-27670000D01*
X87170000Y-29000000D02*
X87170000Y-27670000D01*
X87170000Y-27670000D02*
X88500000Y-27670000D01*
%TD*%
M02*
