%TF.GenerationSoftware,KiCad,Pcbnew,(6.0.2)*%
%TF.CreationDate,2023-03-09T16:35:16+09:00*%
%TF.ProjectId,pixel_array_study,70697865-6c5f-4617-9272-61795f737475,rev?*%
%TF.SameCoordinates,Original*%
%TF.FileFunction,Soldermask,Top*%
%TF.FilePolarity,Negative*%
%FSLAX46Y46*%
G04 Gerber Fmt 4.6, Leading zero omitted, Abs format (unit mm)*
G04 Created by KiCad (PCBNEW (6.0.2)) date 2023-03-09 16:35:16*
%MOMM*%
%LPD*%
G01*
G04 APERTURE LIST*
%ADD10R,1.700000X1.700000*%
%ADD11R,6.000000X2.000000*%
%ADD12O,1.700000X1.700000*%
G04 APERTURE END LIST*
D10*
%TO.C,J8*%
X144000000Y-60200000D03*
%TD*%
D11*
%TO.C,R90*%
X195000000Y-64000000D03*
X195000000Y-68000000D03*
%TD*%
%TO.C,R89*%
X187000000Y-64000000D03*
X187000000Y-68000000D03*
%TD*%
%TO.C,R88*%
X179000000Y-64000000D03*
X179000000Y-68000000D03*
%TD*%
%TO.C,R87*%
X171000000Y-64000000D03*
X171000000Y-68000000D03*
%TD*%
%TO.C,R86*%
X163000000Y-64000000D03*
X163000000Y-68000000D03*
%TD*%
%TO.C,R85*%
X155000000Y-64000000D03*
X155000000Y-68000000D03*
%TD*%
%TO.C,R84*%
X195000000Y-56000000D03*
X195000000Y-60000000D03*
%TD*%
%TO.C,R83*%
X187000000Y-56000000D03*
X187000000Y-60000000D03*
%TD*%
%TO.C,R82*%
X179000000Y-56000000D03*
X179000000Y-60000000D03*
%TD*%
%TO.C,R81*%
X171000000Y-60000000D03*
X171000000Y-56000000D03*
%TD*%
%TO.C,R80*%
X163000000Y-56000000D03*
X163000000Y-60000000D03*
%TD*%
%TO.C,R79*%
X155000000Y-56000000D03*
X155000000Y-60000000D03*
%TD*%
%TO.C,R78*%
X195000000Y-48000000D03*
X195000000Y-52000000D03*
%TD*%
%TO.C,R77*%
X187000000Y-48000000D03*
X187000000Y-52000000D03*
%TD*%
%TO.C,R76*%
X179000000Y-48000000D03*
X179000000Y-52000000D03*
%TD*%
%TO.C,R75*%
X171000000Y-48000000D03*
X171000000Y-52000000D03*
%TD*%
%TO.C,R74*%
X163000000Y-48000000D03*
X163000000Y-52000000D03*
%TD*%
%TO.C,R73*%
X155000000Y-48000000D03*
X155000000Y-52000000D03*
%TD*%
%TO.C,R72*%
X195000000Y-40000000D03*
X195000000Y-44000000D03*
%TD*%
%TO.C,R71*%
X187000000Y-40000000D03*
X187000000Y-44000000D03*
%TD*%
%TO.C,R70*%
X179000000Y-40000000D03*
X179000000Y-44000000D03*
%TD*%
%TO.C,R69*%
X171000000Y-40000000D03*
X171000000Y-44000000D03*
%TD*%
%TO.C,R68*%
X163000000Y-40000000D03*
X163000000Y-44000000D03*
%TD*%
%TO.C,R67*%
X155000000Y-40000000D03*
X155000000Y-44000000D03*
%TD*%
%TO.C,R66*%
X195000000Y-32000000D03*
X195000000Y-36000000D03*
%TD*%
%TO.C,R65*%
X187000000Y-32000000D03*
X187000000Y-36000000D03*
%TD*%
%TO.C,R64*%
X179000000Y-32000000D03*
X179000000Y-36000000D03*
%TD*%
%TO.C,R63*%
X171000000Y-32000000D03*
X171000000Y-36000000D03*
%TD*%
%TO.C,R62*%
X163000000Y-32000000D03*
X163000000Y-36000000D03*
%TD*%
%TO.C,R61*%
X155000000Y-32000000D03*
X155000000Y-36000000D03*
%TD*%
%TO.C,R60*%
X195000000Y-24000000D03*
X195000000Y-28000000D03*
%TD*%
%TO.C,R59*%
X187000000Y-24000000D03*
X187000000Y-28000000D03*
%TD*%
%TO.C,R58*%
X179000000Y-24000000D03*
X179000000Y-28000000D03*
%TD*%
%TO.C,R57*%
X171000000Y-24000000D03*
X171000000Y-28000000D03*
%TD*%
%TO.C,R56*%
X163000000Y-24000000D03*
X163000000Y-28000000D03*
%TD*%
%TO.C,R55*%
X155000000Y-24000000D03*
X155000000Y-28000000D03*
%TD*%
%TO.C,R54*%
X134000000Y-60000000D03*
X134000000Y-56000000D03*
%TD*%
%TO.C,R53*%
X126000000Y-60000000D03*
X126000000Y-56000000D03*
%TD*%
%TO.C,R52*%
X118000000Y-60000000D03*
X118000000Y-56000000D03*
%TD*%
%TO.C,R51*%
X110000000Y-60000000D03*
X110000000Y-56000000D03*
%TD*%
%TO.C,R50*%
X102000000Y-60000000D03*
X102000000Y-56000000D03*
%TD*%
%TO.C,R49*%
X134000000Y-52000000D03*
X134000000Y-48000000D03*
%TD*%
%TO.C,R48*%
X126000000Y-52000000D03*
X126000000Y-48000000D03*
%TD*%
%TO.C,R47*%
X118000000Y-52000000D03*
X118000000Y-48000000D03*
%TD*%
%TO.C,R46*%
X110000000Y-52000000D03*
X110000000Y-48000000D03*
%TD*%
%TO.C,R45*%
X102000000Y-52000000D03*
X102000000Y-48000000D03*
%TD*%
%TO.C,R44*%
X134000000Y-44000000D03*
X134000000Y-40000000D03*
%TD*%
%TO.C,R43*%
X126000000Y-44000000D03*
X126000000Y-40000000D03*
%TD*%
%TO.C,R42*%
X118000000Y-44000000D03*
X118000000Y-40000000D03*
%TD*%
%TO.C,R41*%
X110000000Y-44000000D03*
X110000000Y-40000000D03*
%TD*%
%TO.C,R40*%
X102000000Y-44000000D03*
X102000000Y-40000000D03*
%TD*%
%TO.C,R39*%
X134000000Y-36000000D03*
X134000000Y-32000000D03*
%TD*%
%TO.C,R38*%
X126000000Y-36000000D03*
X126000000Y-32000000D03*
%TD*%
%TO.C,R37*%
X118000000Y-36000000D03*
X118000000Y-32000000D03*
%TD*%
%TO.C,R36*%
X110000000Y-36000000D03*
X110000000Y-32000000D03*
%TD*%
%TO.C,R35*%
X102000000Y-36000000D03*
X102000000Y-32000000D03*
%TD*%
%TO.C,R34*%
X134000000Y-28000000D03*
X134000000Y-24000000D03*
%TD*%
%TO.C,R33*%
X126000000Y-28000000D03*
X126000000Y-24000000D03*
%TD*%
%TO.C,R32*%
X118000000Y-28000000D03*
X118000000Y-24000000D03*
%TD*%
%TO.C,R31*%
X110000000Y-28000000D03*
X110000000Y-24000000D03*
%TD*%
%TO.C,R30*%
X102000000Y-28000000D03*
X102000000Y-24000000D03*
%TD*%
%TO.C,R29*%
X80500000Y-48000000D03*
X80500000Y-52000000D03*
%TD*%
%TO.C,R28*%
X72500000Y-48000000D03*
X72500000Y-52000000D03*
%TD*%
%TO.C,R27*%
X64500000Y-48000000D03*
X64500000Y-52000000D03*
%TD*%
%TO.C,R26*%
X56500000Y-48000000D03*
X56500000Y-52000000D03*
%TD*%
%TO.C,R25*%
X80500000Y-40000000D03*
X80500000Y-44000000D03*
%TD*%
%TO.C,R24*%
X72500000Y-40000000D03*
X72500000Y-44000000D03*
%TD*%
%TO.C,R23*%
X64500000Y-40000000D03*
X64500000Y-44000000D03*
%TD*%
%TO.C,R22*%
X56500000Y-40000000D03*
X56500000Y-44000000D03*
%TD*%
%TO.C,R21*%
X80500000Y-32000000D03*
X80500000Y-36000000D03*
%TD*%
%TO.C,R20*%
X72500000Y-32000000D03*
X72500000Y-36000000D03*
%TD*%
%TO.C,R19*%
X64500000Y-32000000D03*
X64500000Y-36000000D03*
%TD*%
%TO.C,R18*%
X56500000Y-32000000D03*
X56500000Y-36000000D03*
%TD*%
%TO.C,R17*%
X80500000Y-24000000D03*
X80500000Y-28000000D03*
%TD*%
%TO.C,R16*%
X72500000Y-24000000D03*
X72500000Y-28000000D03*
%TD*%
%TO.C,R15*%
X64500000Y-24000000D03*
X64500000Y-28000000D03*
%TD*%
%TO.C,R14*%
X56500000Y-24000000D03*
X56500000Y-28000000D03*
%TD*%
D10*
%TO.C,J10*%
X203800000Y-67600000D03*
%TD*%
%TO.C,J9*%
X208460000Y-24425000D03*
D12*
X211000000Y-24425000D03*
X208460000Y-26965000D03*
X211000000Y-26965000D03*
X208460000Y-29505000D03*
X211000000Y-29505000D03*
X208460000Y-32045000D03*
X211000000Y-32045000D03*
X208460000Y-34585000D03*
X211000000Y-34585000D03*
X208460000Y-37125000D03*
X211000000Y-37125000D03*
X208460000Y-39665000D03*
X211000000Y-39665000D03*
X208460000Y-42205000D03*
X211000000Y-42205000D03*
X208460000Y-44745000D03*
X211000000Y-44745000D03*
X208460000Y-47285000D03*
X211000000Y-47285000D03*
X208460000Y-49825000D03*
X211000000Y-49825000D03*
X208460000Y-52365000D03*
X211000000Y-52365000D03*
X208460000Y-54905000D03*
X211000000Y-54905000D03*
X208460000Y-57445000D03*
X211000000Y-57445000D03*
X208460000Y-59985000D03*
X211000000Y-59985000D03*
X208460000Y-62525000D03*
X211000000Y-62525000D03*
X208460000Y-65065000D03*
X211000000Y-65065000D03*
X208460000Y-67605000D03*
X211000000Y-67605000D03*
%TD*%
%TO.C,J7*%
X144000000Y-56480000D03*
X141460000Y-56480000D03*
X144000000Y-53940000D03*
X141460000Y-53940000D03*
X144000000Y-51400000D03*
X141460000Y-51400000D03*
X144000000Y-48860000D03*
X141460000Y-48860000D03*
X144000000Y-46320000D03*
X141460000Y-46320000D03*
X144000000Y-43780000D03*
X141460000Y-43780000D03*
X144000000Y-41240000D03*
X141460000Y-41240000D03*
X144000000Y-38700000D03*
X141460000Y-38700000D03*
X144000000Y-36160000D03*
X141460000Y-36160000D03*
X144000000Y-33620000D03*
X141460000Y-33620000D03*
X144000000Y-31080000D03*
X141460000Y-31080000D03*
X144000000Y-28540000D03*
X141460000Y-28540000D03*
X144000000Y-26000000D03*
D10*
X141460000Y-26000000D03*
%TD*%
%TO.C,J6*%
X91000000Y-50700000D03*
%TD*%
%TO.C,J5*%
X88500000Y-29000000D03*
D12*
X91040000Y-29000000D03*
X88500000Y-31540000D03*
X91040000Y-31540000D03*
X88500000Y-34080000D03*
X91040000Y-34080000D03*
X88500000Y-36620000D03*
X91040000Y-36620000D03*
X88500000Y-39160000D03*
X91040000Y-39160000D03*
X88500000Y-41700000D03*
X91040000Y-41700000D03*
X88500000Y-44240000D03*
X91040000Y-44240000D03*
X88500000Y-46780000D03*
X91040000Y-46780000D03*
%TD*%
M02*
