M48
; DRILL file {KiCad (6.0.2)} date Thu Mar  9 16:35:28 2023
; FORMAT={-:-/ absolute / inch / decimal}
; #@! TF.CreationDate,2023-03-09T16:35:28+09:00
; #@! TF.GenerationSoftware,Kicad,Pcbnew,(6.0.2)
; #@! TF.FileFunction,Plated,1,2,PTH
FMAT,2
INCH
; #@! TA.AperFunction,Plated,PTH,ViaDrill
T1C0.0157
; #@! TA.AperFunction,Plated,PTH,ComponentDrill
T2C0.0394
%
G90
G05
T1
X2.1457Y-0.9449
X2.1457Y-1.1024
X2.1457Y-1.2598
X2.1457Y-1.4173
X2.1457Y-1.5748
X2.1457Y-1.7323
X2.1457Y-1.8898
X2.1457Y-2.0472
X2.2244Y-0.9449
X2.2244Y-1.1024
X2.2244Y-1.2598
X2.2244Y-1.4173
X2.2244Y-1.5748
X2.2244Y-1.7323
X2.2244Y-1.8898
X2.2244Y-2.0472
X2.3031Y-0.9449
X2.3031Y-1.1024
X2.3031Y-1.2598
X2.3031Y-1.4173
X2.3031Y-1.5748
X2.3031Y-1.7323
X2.3031Y-1.8898
X2.3031Y-2.0472
X2.4606Y-0.9449
X2.4606Y-1.1024
X2.4606Y-1.2598
X2.4606Y-1.4173
X2.4606Y-1.5748
X2.4606Y-1.7323
X2.4606Y-1.8898
X2.4606Y-2.0472
X2.5394Y-0.9449
X2.5394Y-1.1024
X2.5394Y-1.2598
X2.5394Y-1.4173
X2.5394Y-1.5748
X2.5394Y-1.7323
X2.5394Y-1.8898
X2.5394Y-2.0472
X2.6181Y-0.9449
X2.6181Y-1.1024
X2.6181Y-1.2598
X2.6181Y-1.4173
X2.6181Y-1.5748
X2.6181Y-1.7323
X2.6181Y-1.8898
X2.6181Y-2.0472
X2.7756Y-0.9449
X2.7756Y-1.1024
X2.7756Y-1.2598
X2.7756Y-1.4173
X2.7756Y-1.5748
X2.7756Y-1.7323
X2.7756Y-1.8898
X2.7756Y-2.0472
X2.8543Y-0.9449
X2.8543Y-1.1024
X2.8543Y-1.2598
X2.8543Y-1.4173
X2.8543Y-1.5748
X2.8543Y-1.7323
X2.8543Y-1.8898
X2.8543Y-2.0472
X2.9331Y-0.9449
X2.9331Y-1.1024
X2.9331Y-1.2598
X2.9331Y-1.4173
X2.9331Y-1.5748
X2.9331Y-1.7323
X2.9331Y-1.8898
X2.9331Y-2.0472
X3.0906Y-0.9449
X3.0906Y-1.1024
X3.0906Y-1.2598
X3.0906Y-1.4173
X3.0906Y-1.5748
X3.0906Y-1.7323
X3.0906Y-1.8898
X3.0906Y-2.0472
X3.1693Y-0.9449
X3.1693Y-1.1024
X3.1693Y-1.2598
X3.1693Y-1.4173
X3.1693Y-1.5748
X3.1693Y-1.7323
X3.1693Y-1.8898
X3.1693Y-2.0472
X3.248Y-0.9449
X3.248Y-1.1024
X3.248Y-1.2598
X3.248Y-1.4173
X3.248Y-1.5748
X3.248Y-1.7323
X3.248Y-1.8898
X3.248Y-2.0472
X3.937Y-0.9449
X3.937Y-1.1024
X3.937Y-1.2598
X3.937Y-1.4173
X3.937Y-1.5748
X3.937Y-1.7323
X3.937Y-1.8898
X3.937Y-2.0472
X3.937Y-2.2047
X3.937Y-2.3622
X4.0157Y-0.9449
X4.0157Y-1.1024
X4.0157Y-1.2598
X4.0157Y-1.4173
X4.0157Y-1.5748
X4.0157Y-1.7323
X4.0157Y-1.8898
X4.0157Y-2.0472
X4.0157Y-2.2047
X4.0157Y-2.3622
X4.0945Y-0.9449
X4.0945Y-1.1024
X4.0945Y-1.2598
X4.0945Y-1.4173
X4.0945Y-1.5748
X4.0945Y-1.7323
X4.0945Y-1.8898
X4.0945Y-2.0472
X4.0945Y-2.2047
X4.0945Y-2.3622
X4.252Y-0.9449
X4.252Y-1.1024
X4.252Y-1.2598
X4.252Y-1.4173
X4.252Y-1.5748
X4.252Y-1.7323
X4.252Y-1.8898
X4.252Y-2.0472
X4.252Y-2.2047
X4.252Y-2.3622
X4.3307Y-0.9449
X4.3307Y-1.1024
X4.3307Y-1.2598
X4.3307Y-1.4173
X4.3307Y-1.5748
X4.3307Y-1.7323
X4.3307Y-1.8898
X4.3307Y-2.0472
X4.3307Y-2.2047
X4.3307Y-2.3622
X4.4094Y-0.9449
X4.4094Y-1.1024
X4.4094Y-1.2598
X4.4094Y-1.4173
X4.4094Y-1.5748
X4.4094Y-1.7323
X4.4094Y-1.8898
X4.4094Y-2.0472
X4.4094Y-2.2047
X4.4094Y-2.3622
X4.5669Y-0.9449
X4.5669Y-1.1024
X4.5669Y-1.2598
X4.5669Y-1.4173
X4.5669Y-1.5748
X4.5669Y-1.7323
X4.5669Y-1.8898
X4.5669Y-2.0472
X4.5669Y-2.2047
X4.5669Y-2.3622
X4.6457Y-0.9449
X4.6457Y-1.1024
X4.6457Y-1.2598
X4.6457Y-1.4173
X4.6457Y-1.5748
X4.6457Y-1.7323
X4.6457Y-1.8898
X4.6457Y-2.0472
X4.6457Y-2.2047
X4.6457Y-2.3622
X4.7244Y-0.9449
X4.7244Y-1.1024
X4.7244Y-1.2598
X4.7244Y-1.4173
X4.7244Y-1.5748
X4.7244Y-1.7323
X4.7244Y-1.8898
X4.7244Y-2.0472
X4.7244Y-2.2047
X4.7244Y-2.3622
X4.8819Y-0.9449
X4.8819Y-1.1024
X4.8819Y-1.2598
X4.8819Y-1.4173
X4.8819Y-1.5748
X4.8819Y-1.7323
X4.8819Y-1.8898
X4.8819Y-2.0472
X4.8819Y-2.2047
X4.8819Y-2.3622
X4.9606Y-0.9449
X4.9606Y-1.1024
X4.9606Y-1.2598
X4.9606Y-1.4173
X4.9606Y-1.5748
X4.9606Y-1.7323
X4.9606Y-1.8898
X4.9606Y-2.0472
X4.9606Y-2.2047
X4.9606Y-2.3622
X5.0394Y-0.9449
X5.0394Y-1.1024
X5.0394Y-1.2598
X5.0394Y-1.4173
X5.0394Y-1.5748
X5.0394Y-1.7323
X5.0394Y-1.8898
X5.0394Y-2.0472
X5.0394Y-2.2047
X5.0394Y-2.3622
X5.1969Y-0.9449
X5.1969Y-1.1024
X5.1969Y-1.2598
X5.1969Y-1.4173
X5.1969Y-1.5748
X5.1969Y-1.7323
X5.1969Y-1.8898
X5.1969Y-2.0472
X5.1969Y-2.2047
X5.1969Y-2.3622
X5.2756Y-0.9449
X5.2756Y-1.1024
X5.2756Y-1.2598
X5.2756Y-1.4173
X5.2756Y-1.5748
X5.2756Y-1.7323
X5.2756Y-1.8898
X5.2756Y-2.0472
X5.2756Y-2.2047
X5.2756Y-2.3622
X5.3543Y-0.9449
X5.3543Y-1.1024
X5.3543Y-1.2598
X5.3543Y-1.4173
X5.3543Y-1.5748
X5.3543Y-1.7323
X5.3543Y-1.8898
X5.3543Y-2.0472
X5.3543Y-2.2047
X5.3543Y-2.3622
X6.0236Y-0.9449
X6.0236Y-1.1024
X6.0236Y-1.2598
X6.0236Y-1.4173
X6.0236Y-1.5748
X6.0236Y-1.7323
X6.0236Y-1.8898
X6.0236Y-2.0472
X6.0236Y-2.2047
X6.0236Y-2.3622
X6.0236Y-2.5197
X6.0236Y-2.6772
X6.1024Y-0.9449
X6.1024Y-1.1024
X6.1024Y-1.2598
X6.1024Y-1.4173
X6.1024Y-1.5748
X6.1024Y-1.7323
X6.1024Y-1.8898
X6.1024Y-2.0472
X6.1024Y-2.2047
X6.1024Y-2.3622
X6.1024Y-2.5197
X6.1024Y-2.6772
X6.1811Y-0.9449
X6.1811Y-1.1024
X6.1811Y-1.2598
X6.1811Y-1.4173
X6.1811Y-1.5748
X6.1811Y-1.7323
X6.1811Y-1.8898
X6.1811Y-2.0472
X6.1811Y-2.2047
X6.1811Y-2.3622
X6.1811Y-2.5197
X6.1811Y-2.6772
X6.3386Y-0.9449
X6.3386Y-1.1024
X6.3386Y-1.2598
X6.3386Y-1.4173
X6.3386Y-1.5748
X6.3386Y-1.7323
X6.3386Y-1.8898
X6.3386Y-2.0472
X6.3386Y-2.2047
X6.3386Y-2.3622
X6.3386Y-2.5197
X6.3386Y-2.6772
X6.4173Y-0.9449
X6.4173Y-1.1024
X6.4173Y-1.2598
X6.4173Y-1.4173
X6.4173Y-1.5748
X6.4173Y-1.7323
X6.4173Y-1.8898
X6.4173Y-2.0472
X6.4173Y-2.2047
X6.4173Y-2.3622
X6.4173Y-2.5197
X6.4173Y-2.6772
X6.4961Y-0.9449
X6.4961Y-1.1024
X6.4961Y-1.2598
X6.4961Y-1.4173
X6.4961Y-1.5748
X6.4961Y-1.7323
X6.4961Y-1.8898
X6.4961Y-2.0472
X6.4961Y-2.2047
X6.4961Y-2.3622
X6.4961Y-2.5197
X6.4961Y-2.6772
X6.6535Y-0.9449
X6.6535Y-1.1024
X6.6535Y-1.2598
X6.6535Y-1.4173
X6.6535Y-1.5748
X6.6535Y-1.7323
X6.6535Y-1.8898
X6.6535Y-2.0472
X6.6535Y-2.2047
X6.6535Y-2.3622
X6.6535Y-2.5197
X6.6535Y-2.6772
X6.7323Y-0.9449
X6.7323Y-1.1024
X6.7323Y-1.2598
X6.7323Y-1.4173
X6.7323Y-1.5748
X6.7323Y-1.7323
X6.7323Y-1.8898
X6.7323Y-2.0472
X6.7323Y-2.2047
X6.7323Y-2.3622
X6.7323Y-2.5197
X6.7323Y-2.6772
X6.811Y-0.9449
X6.811Y-1.1024
X6.811Y-1.2598
X6.811Y-1.4173
X6.811Y-1.5748
X6.811Y-1.7323
X6.811Y-1.8898
X6.811Y-2.0472
X6.811Y-2.2047
X6.811Y-2.3622
X6.811Y-2.5197
X6.811Y-2.6772
X6.9685Y-0.9449
X6.9685Y-1.1024
X6.9685Y-1.2598
X6.9685Y-1.4173
X6.9685Y-1.5748
X6.9685Y-1.7323
X6.9685Y-1.8898
X6.9685Y-2.0472
X6.9685Y-2.2047
X6.9685Y-2.3622
X6.9685Y-2.5197
X6.9685Y-2.6772
X7.0472Y-0.9449
X7.0472Y-1.1024
X7.0472Y-1.2598
X7.0472Y-1.4173
X7.0472Y-1.5748
X7.0472Y-1.7323
X7.0472Y-1.8898
X7.0472Y-2.0472
X7.0472Y-2.2047
X7.0472Y-2.3622
X7.0472Y-2.5197
X7.0472Y-2.6772
X7.126Y-0.9449
X7.126Y-1.1024
X7.126Y-1.2598
X7.126Y-1.4173
X7.126Y-1.5748
X7.126Y-1.7323
X7.126Y-1.8898
X7.126Y-2.0472
X7.126Y-2.2047
X7.126Y-2.3622
X7.126Y-2.5197
X7.126Y-2.6772
X7.2835Y-0.9449
X7.2835Y-1.1024
X7.2835Y-1.2598
X7.2835Y-1.4173
X7.2835Y-1.5748
X7.2835Y-1.7323
X7.2835Y-1.8898
X7.2835Y-2.0472
X7.2835Y-2.2047
X7.2835Y-2.3622
X7.2835Y-2.5197
X7.2835Y-2.6772
X7.3622Y-0.9449
X7.3622Y-1.1024
X7.3622Y-1.2598
X7.3622Y-1.4173
X7.3622Y-1.5748
X7.3622Y-1.7323
X7.3622Y-1.8898
X7.3622Y-2.0472
X7.3622Y-2.2047
X7.3622Y-2.3622
X7.3622Y-2.5197
X7.3622Y-2.6772
X7.4409Y-0.9449
X7.4409Y-1.1024
X7.4409Y-1.2598
X7.4409Y-1.4173
X7.4409Y-1.5748
X7.4409Y-1.7323
X7.4409Y-1.8898
X7.4409Y-2.0472
X7.4409Y-2.2047
X7.4409Y-2.3622
X7.4409Y-2.5197
X7.4409Y-2.6772
X7.5984Y-0.9449
X7.5984Y-1.1024
X7.5984Y-1.2598
X7.5984Y-1.4173
X7.5984Y-1.5748
X7.5984Y-1.7323
X7.5984Y-1.8898
X7.5984Y-2.0472
X7.5984Y-2.2047
X7.5984Y-2.3622
X7.5984Y-2.5197
X7.5984Y-2.6772
X7.6772Y-0.9449
X7.6772Y-1.1024
X7.6772Y-1.2598
X7.6772Y-1.4173
X7.6772Y-1.5748
X7.6772Y-1.7323
X7.6772Y-1.8898
X7.6772Y-2.0472
X7.6772Y-2.2047
X7.6772Y-2.3622
X7.6772Y-2.5197
X7.6772Y-2.6772
X7.7559Y-0.9449
X7.7559Y-1.1024
X7.7559Y-1.2598
X7.7559Y-1.4173
X7.7559Y-1.5748
X7.7559Y-1.7323
X7.7559Y-1.8898
X7.7559Y-2.0472
X7.7559Y-2.2047
X7.7559Y-2.3622
X7.7559Y-2.5197
X7.7559Y-2.6772
T2
X3.4843Y-1.1417
X3.4843Y-1.2417
X3.4843Y-1.3417
X3.4843Y-1.4417
X3.4843Y-1.5417
X3.4843Y-1.6417
X3.4843Y-1.7417
X3.4843Y-1.8417
X3.5827Y-1.9961
X3.5843Y-1.1417
X3.5843Y-1.2417
X3.5843Y-1.3417
X3.5843Y-1.4417
X3.5843Y-1.5417
X3.5843Y-1.6417
X3.5843Y-1.7417
X3.5843Y-1.8417
X5.5693Y-1.0236
X5.5693Y-1.1236
X5.5693Y-1.2236
X5.5693Y-1.3236
X5.5693Y-1.4236
X5.5693Y-1.5236
X5.5693Y-1.6236
X5.5693Y-1.7236
X5.5693Y-1.8236
X5.5693Y-1.9236
X5.5693Y-2.0236
X5.5693Y-2.1236
X5.5693Y-2.2236
X5.6693Y-1.0236
X5.6693Y-1.1236
X5.6693Y-1.2236
X5.6693Y-1.3236
X5.6693Y-1.4236
X5.6693Y-1.5236
X5.6693Y-1.6236
X5.6693Y-1.7236
X5.6693Y-1.8236
X5.6693Y-1.9236
X5.6693Y-2.0236
X5.6693Y-2.1236
X5.6693Y-2.2236
X5.6693Y-2.3701
X8.0236Y-2.6614
X8.2071Y-0.9616
X8.2071Y-1.0616
X8.2071Y-1.1616
X8.2071Y-1.2616
X8.2071Y-1.3616
X8.2071Y-1.4616
X8.2071Y-1.5616
X8.2071Y-1.6616
X8.2071Y-1.7616
X8.2071Y-1.8616
X8.2071Y-1.9616
X8.2071Y-2.0616
X8.2071Y-2.1616
X8.2071Y-2.2616
X8.2071Y-2.3616
X8.2071Y-2.4616
X8.2071Y-2.5616
X8.2071Y-2.6616
X8.3071Y-0.9616
X8.3071Y-1.0616
X8.3071Y-1.1616
X8.3071Y-1.2616
X8.3071Y-1.3616
X8.3071Y-1.4616
X8.3071Y-1.5616
X8.3071Y-1.6616
X8.3071Y-1.7616
X8.3071Y-1.8616
X8.3071Y-1.9616
X8.3071Y-2.0616
X8.3071Y-2.1616
X8.3071Y-2.2616
X8.3071Y-2.3616
X8.3071Y-2.4616
X8.3071Y-2.5616
X8.3071Y-2.6616
T0
M30
